<?xml version="1.0" encoding="UTF-8"?>
<!DOCTYPE svg PUBLIC "-//W3C//DTD SVG 1.0//EN" "http://www.w3.org/TR/2001/REC-SVG-20010904/DTD/svg10.dtd">
<!-- Creator: CorelDRAW 2020 (64 Bit) -->
<svg xmlns="http://www.w3.org/2000/svg" xml:space="preserve" width="735.546mm" height="107mm" version="1.0" style="shape-rendering:geometricPrecision; text-rendering:geometricPrecision; image-rendering:optimizeQuality; fill-rule:evenodd; clip-rule:evenodd"
viewBox="0 0 74342.15 10814.57"
 xmlns:xlink="http://www.w3.org/1999/xlink"
 xmlns:xodm="http://www.corel.com/coreldraw/odm/2003">
 <defs>
  <style type="text/css">
   <![CDATA[
    .str0 {stroke:#373435;stroke-width:21.18;stroke-miterlimit:22.9256}
    .fil7 {fill:none;fill-rule:nonzero}
    .fil6 {fill:#FEFEFE;fill-rule:nonzero}
    .fil5 {fill:#090400;fill-rule:nonzero}
    .fil3 {fill:#7A7570;fill-rule:nonzero}
    .fil4 {fill:#A06D24;fill-rule:nonzero}
    .fil2 {fill:#A3D5E0;fill-rule:nonzero}
    .fil1 {fill:#C1822F;fill-rule:nonzero}
    .fil0 {fill:#EA4949;fill-rule:nonzero}
   ]]>
  </style>
 </defs>
 <g id="Camada_x0020_1">
  <metadata id="CorelCorpID_0Corel-Layer"/>
  <g id="_2258113770256">
   <path class="fil0" d="M10814.57 5407.29c0,-2985.89 -2421.39,-5407.29 -5407.29,-5407.29 -2985.89,0 -5407.29,2421.39 -5407.29,5407.29 0,2985.89 2421.39,5407.29 5407.29,5407.29 2985.89,0 5407.29,-2421.39 5407.29,-5407.29z"/>
   <path class="fil1" d="M8927.13 5043.32l-7039.7 0 -272.45 287.69 7584.6 0 -272.45 -287.69z"/>
   <path class="fil2" d="M8905.34 5089.08l-6996.11 0 -191.81 193.98 7379.73 0 -191.81 -193.98z"/>
   <path class="fil3" d="M8600.22 5991.39c0,117.7 -95.9,213.58 -213.6,213.58l-5812.64 0c-117.7,0 -213.6,-95.88 -213.6,-213.58l0 -948.07 6242.02 0 0 948.07 -2.17 0z"/>
   <rect class="fil4" x="1614.99" y="5331" width="7584.58" height="470.77"/>
   <g>
    <rect class="fil5" x="2669.86" y="5331" width="296.41" height="470.77"/>
    <rect class="fil5" x="3245.24" y="5331" width="296.41" height="470.77"/>
    <rect class="fil5" x="3820.63" y="5331" width="296.41" height="470.77"/>
    <rect class="fil5" x="4396.01" y="5331" width="296.41" height="470.77"/>
    <rect class="fil5" x="4971.39" y="5331" width="296.41" height="470.77"/>
    <rect class="fil5" x="5546.78" y="5331" width="296.41" height="470.77"/>
    <rect class="fil5" x="6122.16" y="5331" width="296.41" height="470.77"/>
    <rect class="fil5" x="6697.54" y="5331" width="296.41" height="470.77"/>
    <rect class="fil5" x="7272.92" y="5331" width="296.41" height="470.77"/>
    <rect class="fil5" x="7846.12" y="5331" width="296.41" height="470.77"/>
   </g>
   <path class="fil2" d="M8386.62 4609.61l-5812.64 0 -215.77 433.71 6242.02 0 -213.6 -433.71z"/>
   <g>
   </g>
   <g>
   </g>
   <g>
   </g>
   <g>
   </g>
   <g>
   </g>
   <g>
   </g>
   <g>
   </g>
   <g>
   </g>
   <g>
   </g>
   <g>
   </g>
   <g>
   </g>
   <g>
   </g>
   <g>
   </g>
   <g>
   </g>
   <g>
   </g>
  </g>
  <path class="fil6" d="M14035.39 5716.79l-84.23 7.06 -467.04 -586.05 857.53 0 597.22 -1108.55c91.87,-178.88 183.75,-333.03 275.62,-462.48 91.87,-129.46 196.51,-224.78 313.93,-285.96l405.8 -134.16 0 -56.49c-117.42,9.42 -236.09,31.77 -356.04,67.08 -119.95,35.3 -243.74,89.43 -371.33,162.4 -127.6,72.97 -262.89,170.63 -405.8,293.02 -142.91,122.4 -298.61,277.74 -467.04,466.01 -137.83,-112.97 -236.09,-234.17 -294.8,-363.63 -58.68,-129.46 -84.2,-256.55 -76.56,-381.28 7.67,-124.73 45.95,-242.43 114.86,-353.04 68.91,-110.61 162.04,-201.23 279.46,-271.84 173.55,-103.55 373.89,-161.23 601.03,-172.99 227.14,-11.76 453,8.23 677.62,60.02 224.61,51.79 437.69,127.09 639.31,225.95 201.65,98.85 366.25,207.13 493.87,324.8l-1010.67 1991.15 911.12 0 1286.29 -2464.23c102.1,18.82 219.5,28.24 352.21,28.24 132.74,0 266.73,-3.53 401.97,-10.59 135.27,-7.06 265.42,-18.82 390.49,-35.3 125.07,-16.48 233.54,-31.77 325.41,-45.9l-1921.8 3770.48c-102.1,193.01 -165.87,343.62 -191.42,451.89 -25.52,108.28 -17.87,204.76 22.99,289.49 -142.91,42.36 -282.04,72.97 -417.28,91.79 -135.27,18.82 -260.33,22.35 -375.2,10.59 -114.84,-11.76 -215.63,-38.83 -302.42,-81.2 -86.79,-42.36 -153.14,-101.21 -199.07,-176.52 -76.58,-131.79 -98.27,-263.61 -65.08,-395.41 33.16,-131.79 77.81,-251.83 133.99,-360.1l375.17 -720.2 -949.43 91.79 -788.62 1546.32c-102.1,-14.12 -215.66,-21.18 -340.73,-21.18 -125.07,0 -256.5,5.89 -394.32,17.65 -137.8,11.76 -274.37,27.08 -409.61,45.9 -135.27,18.82 -261.58,40 -379.01,63.55l811.61 -1518.08z"/>
  <path id="1" class="fil6" d="M18407.29 5392c158.23,-225.95 334.33,-422.48 528.31,-589.58 193.98,-167.1 396.88,-294.19 608.68,-381.28 211.82,-87.09 431.35,-129.46 658.46,-127.09 227.14,2.36 455.59,60.02 685.29,172.99 96.96,47.06 201.62,81.2 313.9,102.38 112.31,21.18 224.61,31.77 336.89,31.77 112.28,0 223.31,-10.59 333.05,-31.77 109.78,-21.18 213.13,-48.26 310.09,-81.2 -56.15,103.55 -127.6,234.17 -214.38,391.88 -86.79,157.7 -174.82,317.74 -264.14,480.14 -89.32,162.4 -169.71,310.68 -241.18,444.83 -71.47,134.16 -122.51,227.11 -153.14,278.9 -102.1,178.88 -169.71,315.37 -202.9,409.53 -33.19,94.15 -19.13,141.22 42.11,141.22 15.32,0 44.67,-11.76 88.07,-35.3 43.37,-23.55 100.8,-65.91 172.27,-127.09 71.47,-61.18 154.39,-145.91 248.82,-254.19 94.46,-108.28 195.26,-249.49 302.45,-423.65l183.75 98.85c-66.33,94.15 -150.56,211.82 -252.66,353.04 -102.1,141.22 -227.14,277.74 -375.17,409.53 -148.03,131.79 -321.57,244.77 -520.64,338.92 -199.09,94.15 -428.79,141.22 -689.1,141.22 -66.36,0 -133.99,-7.06 -202.9,-21.18 -68.91,-14.12 -132.74,-36.47 -191.42,-67.08 -58.68,-30.61 -109.75,-71.78 -153.14,-123.56 -43.37,-51.79 -70.16,-117.67 -80.39,-197.7l114.86 -233.01 -22.96 0 -84.23 112.97c-158.23,207.13 -302.45,345.98 -432.6,416.59 -130.15,70.61 -279.46,105.91 -447.92,105.91 -178.66,0 -331.78,-45.9 -459.4,-137.69 -127.6,-91.79 -214.38,-215.36 -260.31,-370.69 -45.95,-155.34 -45.95,-338.92 0,-550.74 45.92,-211.82 153.11,-437.77 321.57,-677.84zm911.12 1320.37c51.04,-4.7 109.75,-45.9 176.1,-123.56 66.36,-77.67 141.66,-183.58 225.86,-317.74 84.23,-134.16 176.1,-290.66 275.65,-469.54 99.52,-178.88 202.9,-369.53 310.09,-571.93l359.85 -684.9c-66.36,-4.7 -136.55,23.55 -210.55,84.73 -74,61.18 -150.58,141.22 -229.7,240.07 -79.14,98.85 -159.54,209.46 -241.18,331.86 -81.67,122.4 -160.79,242.43 -237.37,360.1 -260.31,395.41 -416,687.26 -467.04,875.54 -51.04,188.28 -38.28,280.07 38.28,275.37z"/>
  <path id="2" class="fil6" d="M22840.43 4325.81c280.74,-56.49 512.99,-80.03 696.77,-70.61 183.75,9.42 334.33,37.67 451.73,84.73 117.42,47.06 205.46,108.28 264.17,183.58 58.68,75.31 103.35,152.98 133.99,233.01 45.92,150.64 29.36,316.57 -49.79,497.79 -79.11,181.22 -177.35,368.33 -294.78,561.34 -51.04,80.03 -109.75,163.57 -176.1,250.66 -66.33,87.09 -126.32,168.29 -179.91,243.6 -53.6,75.31 -94.46,141.22 -122.51,197.7 -28.08,56.49 -26.8,96.49 3.81,120.03 40.86,37.67 86.79,49.43 137.83,35.3 51.04,-14.12 105.94,-44.73 164.62,-91.79 58.68,-47.06 118.67,-104.74 179.94,-172.99 61.24,-68.25 122.48,-140.05 183.75,-215.36 61.24,-75.31 118.67,-149.44 172.27,-222.42 53.6,-72.97 90.62,-125.93 111.03,-158.87l176.1 91.79c-56.15,75.31 -119.95,158.87 -191.42,250.66 -71.47,91.79 -149.31,185.94 -233.54,282.43 -84.2,96.49 -172.27,189.47 -264.14,278.9 -91.87,89.43 -183.75,167.1 -275.65,233.01 -91.87,65.91 -190.14,115.34 -294.78,148.28 -104.61,32.94 -210.55,52.96 -317.74,60.02 -107.19,7.06 -210.55,1.17 -310.09,-17.65 -99.55,-18.82 -187.58,-47.06 -264.14,-84.73 -265.42,-122.4 -398.16,-314.21 -398.16,-575.46 0,-261.25 107.19,-544.85 321.57,-850.83 158.23,-216.52 289.69,-407.16 394.32,-571.93 104.63,-164.76 151.86,-277.74 141.66,-338.92 -10.23,-37.67 -21.71,-69.44 -34.47,-95.32 -12.76,-25.88 -44.67,-41.2 -95.71,-45.9l-38.28 21.18c-25.52,70.61 -68.91,169.46 -130.15,296.55 -61.27,127.09 -130.18,262.42 -206.74,406 -76.56,143.58 -155.7,282.43 -237.34,416.59 -81.67,134.16 -150.58,241.24 -206.74,321.27l-176.1 -91.79c81.67,-136.52 155.7,-260.08 222.05,-370.69 66.33,-110.61 126.32,-216.52 179.91,-317.74 53.6,-101.21 105.94,-204.76 156.98,-310.68 51.01,-105.91 102.08,-222.42 153.11,-349.51 -40.84,-23.55 -67.63,-57.65 -80.39,-102.38 -12.73,-44.73 -19.13,-97.68 -19.13,-158.87l352.18 0zm1676.81 1475.71l-7.67 -7.06c35.72,-32.94 38.31,-30.61 7.67,7.06z"/>
  <path id="3" class="fil6" d="M26224.65 5709.73c25.52,-56.49 71.47,-135.32 137.83,-236.54 66.33,-101.21 131.43,-203.6 195.23,-307.15 63.83,-103.55 116.11,-197.7 156.98,-282.43 40.84,-84.73 51.01,-138.85 30.61,-162.4 -40.84,-14.12 -80.39,-7.06 -118.67,21.18 -38.28,28.24 -88.04,88.26 -149.31,180.05 -61.24,91.79 -141.63,225.95 -241.18,402.47 -99.52,176.52 -230.95,406 -394.32,688.43l-581.88 1115.61 -1462.42 0 1408.83 -2725.48c86.79,23.55 190.14,34.14 310.09,31.77 119.92,-2.36 247.57,-10.59 382.81,-24.71 135.27,-14.12 273.09,-30.61 413.45,-49.43 140.38,-18.82 271.81,-37.67 394.32,-56.49l-367.52 345.98 15.32 42.36c188.86,-183.58 394.32,-307.15 616.38,-370.69 222.03,-63.55 430.02,-74.14 623.99,-31.77 86.79,23.55 173.55,56.49 260.33,98.85 86.79,42.36 155.7,96.49 206.71,162.4l-191.39 331.86 15.32 28.24c183.75,-258.89 398.13,-436.6 643.15,-533.09 245.02,-96.49 482.36,-132.99 712.06,-109.44 117.39,14.12 216.94,50.59 298.61,109.44 81.64,58.85 135.24,142.38 160.79,250.66 20.4,89.43 28.05,170.63 22.96,243.6 -5.09,72.97 -20.4,147.11 -45.95,222.42 -25.52,75.31 -63.8,155.34 -114.84,240.07 -51.04,84.73 -112.28,183.58 -183.75,296.55 -45.95,80.03 -111.03,176.52 -195.26,289.49 -84.23,112.97 -163.34,222.42 -237.34,328.33 -74,105.91 -126.34,196.54 -156.98,271.84 -30.61,75.31 -12.73,112.97 53.6,112.97 35.72,0 91.9,-27.08 168.46,-81.2 76.56,-54.12 156.95,-123.56 241.18,-208.29 84.23,-84.73 168.43,-176.52 252.66,-275.37 84.23,-98.85 156.98,-193.01 218.22,-282.43l183.75 98.85c-91.87,117.67 -193.98,248.3 -306.26,391.88 -112.28,143.58 -237.34,277.74 -375.17,403.63 -137.83,125.93 -292.22,231.84 -463.23,317.74 -170.99,85.93 -358.57,129.46 -562.75,129.46 -199.07,0 -368.78,-47.06 -509.16,-141.22 -140.38,-94.15 -213.1,-223.58 -218.22,-388.35 0,-150.64 38.28,-291.86 114.86,-423.65 76.56,-131.79 170.99,-287.13 283.29,-466.01 127.6,-207.13 228.42,-371.86 302.42,-494.26 74,-122.4 130.18,-217.72 168.46,-285.96 38.28,-68.25 58.68,-116.5 61.24,-144.75 2.56,-28.24 -3.84,-49.43 -19.13,-63.55 -40.86,-4.7 -77.84,5.89 -111.03,31.77 -33.19,25.88 -74,81.2 -122.51,165.93 -48.51,84.73 -113.58,202.4 -195.26,353.04 -81.64,150.64 -191.39,345.98 -329.22,586.05l-681.43 1270.95 -1462.42 0 742.69 -1419.23zm505.32 -1419.23l0 14.12c-5.09,0 -8.92,1.17 -11.48,3.53 -2.56,2.36 -6.39,3.53 -11.48,3.53l22.96 -21.18z"/>
  <path id="4" class="fil6" d="M31921.16 4304.63c245.02,0 460.65,38.83 646.98,116.5 186.31,77.67 334.31,183.58 444.08,317.74 109.75,134.16 178.66,289.49 206.71,466.01 28.08,176.52 3.84,361.27 -72.72,554.27 -96.99,244.77 -239.93,468.38 -428.76,670.78 148.03,-47.06 288.38,-123.56 421.09,-229.48 132.74,-105.91 247.57,-241.24 344.56,-406l183.75 98.85c-163.34,254.19 -353.46,444.83 -570.43,571.93 -216.94,127.09 -440.25,202.4 -669.94,225.95 -188.84,136.52 -403.25,244.77 -643.15,324.8 -239.93,80.03 -505.32,120.03 -796.29,120.03 -311.34,0 -562.75,-49.43 -754.17,-148.28 -191.42,-98.85 -333.05,-223.58 -424.93,-374.22 -91.87,-150.64 -140.38,-318.9 -145.47,-504.85 -5.11,-185.94 25.52,-363.63 91.87,-533.09 66.33,-174.16 167.18,-337.75 302.42,-490.73 135.27,-152.98 297.36,-287.13 486.2,-402.47 188.86,-115.34 400.72,-207.13 635.5,-275.37 234.79,-68.25 482.36,-102.38 742.69,-102.38zm176.1 190.64c-61.27,0 -127.62,36.47 -199.09,109.44 -71.47,72.97 -145.47,165.93 -222.03,278.9 -76.56,112.97 -154.39,237.71 -233.54,374.22 -79.11,136.52 -151.86,268.31 -218.22,395.41 -76.56,145.91 -153.11,294.19 -229.67,444.83 -76.58,150.64 -140.38,288.33 -191.42,413.06 -51.04,124.73 -80.39,225.95 -88.07,303.62 -7.64,77.67 21.71,116.5 88.07,116.5 61.24,0 128.9,-41.2 202.9,-123.56 74,-82.37 149.31,-183.58 225.86,-303.62 76.56,-120.03 154.39,-251.83 233.54,-395.41 79.11,-143.58 151.86,-278.9 218.19,-406 66.36,-131.79 136.57,-269.48 210.57,-413.06 74,-143.58 135.24,-274.2 183.75,-391.88 48.51,-117.67 77.84,-214.19 88.07,-289.49 10.2,-75.31 -12.76,-112.97 -68.91,-112.97z"/>
  <path id="5" class="fil6" d="M34187.49 4403.48c86.79,23.55 190.17,34.14 310.09,31.77 119.95,-2.36 248.85,-10.59 386.68,-24.71 137.8,-14.12 276.9,-30.61 417.28,-49.43 140.35,-18.82 271.79,-37.67 394.29,-56.49l-375.17 367.16 22.96 49.43c209.3,-197.7 436.44,-330.69 681.45,-398.94 245.02,-68.25 467.04,-78.84 666.11,-31.77 102.1,23.55 195.26,63.55 279.49,120.03 84.2,56.49 144.19,129.46 179.91,218.89 30.63,70.61 43.39,141.22 38.28,211.82 -5.09,70.61 -22.96,144.75 -53.6,222.42 -30.61,77.67 -72.72,162.4 -126.32,254.19 -53.6,91.79 -111.03,196.54 -172.3,314.21 -51.01,98.85 -119.92,207.13 -206.71,324.8 -86.79,117.67 -165.87,225.95 -237.37,324.8 -71.47,98.85 -122.48,182.41 -153.11,250.66 -30.63,68.25 -12.76,102.38 53.6,102.38 35.72,0 91.87,-27.08 168.43,-81.2 76.58,-54.12 156.98,-123.56 241.18,-208.29 84.23,-84.73 168.46,-176.52 252.69,-275.37 84.2,-98.85 156.95,-193.01 218.19,-282.43l183.78 98.85c-91.87,117.67 -192.7,248.3 -302.45,391.88 -109.75,143.58 -234.79,277.74 -375.17,403.63 -140.38,125.93 -294.78,231.84 -463.21,317.74 -168.46,85.93 -354.76,129.46 -558.94,129.46 -204.15,0 -379.01,-48.26 -524.47,-144.75 -145.47,-96.49 -223.31,-227.11 -233.54,-391.88 -5.09,-122.4 34.47,-255.36 118.7,-398.94 84.2,-143.58 185,-304.78 302.42,-483.67 132.74,-202.4 237.34,-364.8 313.93,-487.2 76.56,-122.4 132.71,-218.89 168.43,-289.49 35.72,-70.61 53.6,-120.03 53.6,-148.28 0,-28.24 -7.64,-49.43 -22.96,-63.55 -40.84,-9.42 -86.79,0 -137.83,28.24 -51.04,28.24 -113.58,88.26 -187.58,180.05 -74,91.79 -165.87,222.42 -275.62,391.88 -109.78,169.46 -243.77,395.41 -401.97,677.84l-589.58 1129.73 -1462.4 0 1408.8 -2725.48zm1523.66 -112.97l0 14.12c-5.09,0 -10.23,2.36 -15.32,7.06l15.32 -21.18z"/>
  <path id="6" class="fil6" d="M36844.33 6542.91c20.4,-150.64 82.95,-321.27 187.58,-511.91 104.63,-190.64 215.66,-396.57 333.05,-617.82l528.31 -974.39c112.28,9.42 236.09,11.76 371.33,7.06 135.27,-4.7 271.81,-11.76 409.64,-21.18 137.83,-9.42 270.54,-24.71 398.13,-45.9 127.6,-21.18 245.02,-45.9 352.21,-74.14l-957.08 1779.33c-102.1,178.88 -170.99,315.37 -206.71,409.53 -35.72,94.15 -30.63,141.22 15.29,141.22 15.32,0 47.23,-11.76 95.71,-35.3 48.51,-23.55 109.78,-65.91 183.78,-127.09 74,-61.18 159.51,-145.91 256.5,-254.19 96.96,-108.28 199.07,-249.49 306.26,-423.65l183.75 98.85c-76.56,108.28 -170.99,233.01 -283.29,374.22 -112.28,141.22 -244.99,276.54 -398.13,406 -153.14,129.46 -326.66,238.9 -520.64,328.33 -193.98,89.43 -408.36,134.16 -643.17,134.16 -86.79,0 -170.99,-11.76 -252.66,-35.3 -81.64,-23.55 -151.86,-58.85 -210.55,-105.91 -58.68,-47.06 -102.1,-108.28 -130.18,-183.58 -28.05,-75.31 -34.44,-164.76 -19.13,-268.31zm2993.71 -2838.45c-61.24,98.85 -136.55,183.58 -225.86,254.19 -89.32,70.61 -187.58,123.56 -294.78,158.87 -107.19,35.3 -216.94,50.59 -329.22,45.9 -112.31,-4.7 -219.5,-28.24 -321.6,-70.61 -224.58,-108.28 -366.25,-256.55 -424.93,-444.83 -58.68,-188.28 -26.8,-385.98 95.71,-593.11 56.15,-98.85 128.9,-180.05 218.22,-243.6 89.32,-63.55 187.58,-110.61 294.78,-141.22 107.19,-30.61 216.94,-42.36 329.22,-35.3 112.31,7.06 219.5,31.77 321.57,74.14 209.3,108.28 343.28,255.36 401.99,441.3 58.68,185.94 37,370.69 -65.1,554.27z"/>
  <path id="7" class="fil6" d="M40596.05 6910.07c127.6,0 270.54,-18.82 428.76,-56.49 158.23,-37.67 320.32,-98.85 486.2,-183.58 165.87,-84.73 329.25,-198.87 490.03,-342.45 160.79,-143.58 304.98,-321.27 432.6,-533.09l183.75 98.85c-239.93,371.86 -543.63,670.78 -911.12,896.72 -367.52,225.95 -783.56,338.92 -1248.04,338.92 -352.18,0 -635.47,-50.59 -849.86,-151.81 -214.41,-101.21 -367.52,-231.84 -459.4,-391.88 -91.9,-160.04 -127.62,-340.09 -107.19,-540.15 20.4,-200.07 91.87,-398.94 214.38,-596.64 132.71,-221.25 301.17,-409.53 505.32,-564.87 204.18,-155.34 421.12,-278.9 650.82,-370.69 229.7,-91.79 459.4,-154.17 689.1,-187.11 229.67,-32.94 438.97,-40 627.83,-21.18 183.75,23.55 334.33,64.71 451.73,123.56 117.42,58.85 206.74,130.63 267.98,215.36 61.27,84.73 94.46,177.69 99.55,278.9 5.09,101.21 -10.23,201.23 -45.95,300.09 -40.84,117.67 -111,231.84 -210.55,342.45 -99.55,110.61 -224.61,202.4 -375.17,275.37 -150.56,72.97 -322.85,115.34 -516.83,127.09 -193.98,11.76 -403.22,-22.35 -627.83,-102.38 117.42,-193.01 211.82,-341.28 283.29,-444.83 71.47,-103.55 137.83,-200.07 199.07,-289.49 158.23,-221.25 256.5,-373.06 294.78,-455.42 38.28,-82.37 47.2,-137.69 26.8,-165.93 -35.72,-47.06 -127.6,17.65 -275.62,194.17 -148.05,176.52 -344.56,464.85 -589.55,864.95 -122.51,197.7 -219.5,378.92 -290.97,543.68 -71.47,164.76 -113.58,305.98 -126.32,423.65 -12.76,117.67 5.09,209.46 53.6,275.37 48.48,65.91 131.4,98.85 248.82,98.85z"/>
  <path id="8" class="fil6" d="M42640.35 5392c158.23,-225.95 334.33,-422.48 528.31,-589.58 193.98,-167.1 396.88,-294.19 608.7,-381.28 211.82,-87.09 431.32,-129.46 658.46,-127.09 227.14,2.36 455.56,60.02 685.26,172.99 96.96,47.06 201.62,81.2 313.93,102.38 112.28,21.18 224.58,31.77 336.89,31.77 112.28,0 223.31,-10.59 333.05,-31.77 109.75,-21.18 213.1,-48.26 310.09,-81.2 -56.15,103.55 -127.6,234.17 -214.38,391.88 -86.79,157.7 -174.85,317.74 -264.17,480.14 -89.32,162.4 -169.71,310.68 -241.18,444.83 -71.47,134.16 -122.51,227.11 -153.11,278.9 -102.1,178.88 -169.71,315.37 -202.9,409.53 -33.19,94.15 -19.15,141.22 42.11,141.22 15.29,0 44.67,-11.76 88.04,-35.3 43.37,-23.55 100.8,-65.91 172.27,-127.09 71.47,-61.18 154.39,-145.91 248.85,-254.19 94.43,-108.28 195.23,-249.49 302.42,-423.65l183.78 98.85c-66.36,94.15 -150.58,211.82 -252.69,353.04 -102.08,141.22 -227.11,277.74 -375.17,409.53 -148.03,131.79 -321.57,244.77 -520.64,338.92 -199.07,94.15 -428.76,141.22 -689.1,141.22 -66.36,0 -133.99,-7.06 -202.9,-21.18 -68.91,-14.12 -132.71,-36.47 -191.42,-67.08 -58.68,-30.61 -109.75,-71.78 -153.11,-123.56 -43.39,-51.79 -70.19,-117.67 -80.39,-197.7l114.84 -233.01 -22.96 0 -84.23 112.97c-158.23,207.13 -302.42,345.98 -432.6,416.59 -130.15,70.61 -279.46,105.91 -447.89,105.91 -178.66,0 -331.8,-45.9 -459.4,-137.69 -127.6,-91.79 -214.38,-215.36 -260.33,-370.69 -45.92,-155.34 -45.92,-338.92 0,-550.74 45.95,-211.82 153.14,-437.77 321.57,-677.84zm911.12 1320.37c51.04,-4.7 109.78,-45.9 176.1,-123.56 66.36,-77.67 141.66,-183.58 225.89,-317.74 84.2,-134.16 176.1,-290.66 275.62,-469.54 99.55,-178.88 202.9,-369.53 310.09,-571.93l359.85 -684.9c-66.33,-4.7 -136.55,23.55 -210.55,84.73 -74,61.18 -150.56,141.22 -229.7,240.07 -79.11,98.85 -159.51,209.46 -241.18,331.86 -81.67,122.4 -160.79,242.43 -237.34,360.1 -260.33,395.41 -416.03,687.26 -467.07,875.54 -51.04,188.28 -38.28,280.07 38.28,275.37z"/>
  <path id="9" class="fil6" d="M49600.18 5088.38c-122.51,108.28 -227.14,218.89 -313.93,331.86 -86.79,112.97 -160.79,240.07 -222.03,381.28 -102.1,240.07 -114.86,454.26 -38.28,642.54l1669.13 -3184.43c102.08,14.12 218.19,20.01 348.37,17.65 130.15,-2.36 264.14,-9.42 401.97,-21.18 137.83,-11.76 274.37,-27.08 409.61,-45.9 135.27,-18.82 256.5,-37.67 363.69,-56.49l-1837.57 3502.17c-148.03,-18.82 -324.13,-23.55 -528.31,-14.12 -204.15,9.42 -410.89,28.24 -620.19,56.49 81.67,56.49 181.22,101.21 298.61,134.16 117.42,32.94 257.78,51.79 421.12,56.49 260.33,14.12 492.59,-23.55 696.74,-112.97 204.18,-89.43 393.04,-222.42 566.59,-398.94 173.55,-176.52 333.05,-395.41 478.52,-656.66 145.5,-261.25 289.69,-558.97 432.6,-893.19 112.31,-249.49 201.65,-488.36 267.98,-716.67 66.36,-228.31 99.55,-430.71 99.55,-607.23 0,-176.52 -38.28,-322.44 -114.84,-437.77 -76.58,-115.34 -199.09,-187.11 -367.52,-215.36 -183.78,-32.94 -368.78,-37.67 -555.11,-14.12 -186.31,23.55 -364.94,71.78 -535.96,144.75 -171.02,72.97 -329.25,168.29 -474.72,285.96 -145.47,117.67 -266.7,254.19 -363.69,409.53 -102.1,160.04 -182.5,333.03 -241.18,518.97 -58.68,185.94 -88.04,396.57 -88.04,631.94 -234.81,47.06 -435.16,38.83 -601.06,-24.71 -165.87,-63.55 -289.69,-160.04 -371.33,-289.49 -81.67,-129.46 -118.67,-277.74 -111.03,-444.83 7.67,-167.1 67.63,-333.03 179.94,-497.79 122.51,-178.88 288.38,-338.92 497.68,-480.14 209.3,-141.22 454.28,-255.36 735.02,-342.45 280.74,-87.09 594.67,-143.58 941.76,-169.46 347.12,-25.88 719.73,-15.29 1117.86,31.77 331.8,42.36 603.62,118.87 815.44,229.48 211.8,110.61 377.73,241.24 497.68,391.88 119.92,150.64 201.62,314.21 244.99,490.73 43.39,176.52 61.27,353.04 53.6,529.56 -7.64,176.52 -33.19,345.98 -76.56,508.38 -43.37,162.4 -90.62,302.45 -141.63,420.12 -183.78,418.95 -413.48,764.93 -689.1,1037.94 -275.65,273.01 -580.63,486.03 -914.96,639 -334.33,152.98 -691.66,250.66 -1071.94,293.02 -380.26,42.36 -766.91,40 -1159.95,-7.06 -403.25,-47.06 -741.44,-124.73 -1014.51,-233.01 -273.06,-108.28 -486.2,-233.01 -639.31,-374.22 -153.14,-141.22 -248.85,-291.86 -287.13,-451.89 -38.28,-160.04 -21.71,-317.74 49.76,-473.08 66.36,-164.76 162.07,-300.09 287.13,-406 125.07,-105.91 267.98,-180.05 428.76,-222.42 160.79,-42.36 334.33,-54.12 520.64,-35.3 186.33,18.82 371.36,65.91 555.11,141.22z"/>
  <path id="10" class="fil6" d="M55059.31 6910.07c132.74,0 283.29,-18.82 451.75,-56.49 168.43,-37.67 340.7,-98.85 516.8,-183.58 176.1,-84.73 347.12,-198.87 512.99,-342.45 165.9,-143.58 312.65,-321.27 440.27,-533.09l183.75 98.85c-245.02,381.28 -565.31,682.54 -960.91,903.79 -395.57,221.25 -820.5,331.86 -1274.81,331.86 -352.21,0 -638.06,-48.26 -857.53,-144.75 -219.5,-96.49 -376.45,-224.78 -470.88,-384.81 -94.46,-160.04 -130.18,-340.09 -107.19,-540.15 22.96,-200.07 98.27,-403.63 225.86,-610.76 132.71,-221.25 302.42,-409.53 509.16,-564.87 206.74,-155.34 424.96,-278.9 654.63,-370.69 229.7,-91.79 459.4,-154.17 689.1,-187.11 229.7,-32.94 436.44,-40 620.19,-21.18 199.07,23.55 357.29,69.44 474.72,137.69 117.42,68.25 202.9,148.28 256.5,240.07 53.6,91.79 80.39,189.47 80.39,293.02 0,103.55 -17.87,202.4 -53.6,296.55 -66.36,164.76 -165.87,316.57 -298.61,455.42 -132.71,138.85 -293.52,255.36 -482.36,349.51 -188.86,94.15 -400.72,164.76 -635.5,211.82 -234.79,47.06 -487.45,63.55 -758.01,49.43 -56.15,178.88 -63.8,318.9 -22.96,420.12 40.84,101.21 142.91,151.81 306.26,151.81zm99.55 -1341.56c-61.24,98.85 -114.84,193.01 -160.79,282.43 -45.95,89.43 -89.32,174.16 -130.15,254.19 122.51,-61.18 246.27,-165.93 371.33,-314.21 125.07,-148.28 269.26,-351.87 432.6,-610.76 122.51,-193.01 206.74,-344.81 252.66,-455.42 45.95,-110.61 71.47,-177.69 76.56,-201.23 -56.15,-47.06 -149.31,15.29 -279.46,187.11 -130.15,171.82 -317.74,457.79 -562.75,857.89z"/>
  <path id="11" class="fil6" d="M56659.53 6542.91c15.32,-150.64 76.58,-321.27 183.78,-511.91 107.19,-190.64 219.47,-396.57 336.89,-617.82l1309.25 -2457.17c117.42,9.42 243.77,12.95 379.01,10.59 135.27,-2.36 270.56,-8.23 405.8,-17.65 135.27,-9.42 266.73,-24.71 394.32,-45.9 127.6,-21.18 245.02,-48.26 352.21,-81.2l-1738.05 3262.1c-214.38,400.1 -265.42,583.69 -153.14,550.74 20.4,-9.42 53.6,-27.08 99.55,-52.96 45.92,-25.88 103.35,-68.25 172.27,-127.09 68.91,-58.85 148.03,-141.22 237.34,-247.13 89.32,-105.91 187.58,-243.6 294.78,-413.06l183.78 98.85c-66.36,94.15 -151.86,210.66 -256.5,349.51 -104.63,138.85 -233.54,275.37 -386.65,409.53 -153.14,134.16 -331.8,248.3 -535.98,342.45 -204.15,94.15 -436.41,141.22 -696.74,141.22 -76.56,0 -153.11,-10.59 -229.7,-31.77 -76.56,-21.18 -142.91,-55.32 -199.07,-102.38 -56.15,-47.06 -99.55,-108.28 -130.15,-183.58 -30.63,-75.31 -38.28,-167.1 -22.99,-275.37z"/>
  <path id="12" class="fil6" d="M58604.32 6542.91c20.4,-150.64 82.95,-321.27 187.58,-511.91 104.63,-190.64 215.66,-396.57 333.05,-617.82l528.31 -974.39c112.28,9.42 236.09,11.76 371.33,7.06 135.27,-4.7 271.81,-11.76 409.64,-21.18 137.83,-9.42 270.54,-24.71 398.13,-45.9 127.62,-21.18 245.02,-45.9 352.21,-74.14l-957.08 1779.33c-102.08,178.88 -170.99,315.37 -206.71,409.53 -35.72,94.15 -30.63,141.22 15.32,141.22 15.29,0 47.2,-11.76 95.68,-35.3 48.51,-23.55 109.78,-65.91 183.78,-127.09 74,-61.18 159.51,-145.91 256.5,-254.19 96.96,-108.28 199.07,-249.49 306.26,-423.65l183.75 98.85c-76.56,108.28 -170.99,233.01 -283.29,374.22 -112.28,141.22 -244.99,276.54 -398.13,406 -153.14,129.46 -326.66,238.9 -520.64,328.33 -193.98,89.43 -408.36,134.16 -643.17,134.16 -86.76,0 -170.99,-11.76 -252.66,-35.3 -81.64,-23.55 -151.86,-58.85 -210.55,-105.91 -58.68,-47.06 -102.1,-108.28 -130.15,-183.58 -28.08,-75.31 -34.47,-164.76 -19.15,-268.31zm2993.73 -2838.45c-61.27,98.85 -136.57,183.58 -225.89,254.19 -89.32,70.61 -187.58,123.56 -294.78,158.87 -107.19,35.3 -216.94,50.59 -329.22,45.9 -112.31,-4.7 -219.5,-28.24 -321.57,-70.61 -224.61,-108.28 -366.27,-256.55 -424.96,-444.83 -58.68,-188.28 -26.8,-385.98 95.71,-593.11 56.15,-98.85 128.9,-180.05 218.22,-243.6 89.32,-63.55 187.58,-110.61 294.78,-141.22 107.19,-30.61 216.94,-42.36 329.22,-35.3 112.31,7.06 219.5,31.77 321.6,74.14 209.27,108.28 343.26,255.36 401.97,441.3 58.68,185.94 37,370.69 -65.08,554.27z"/>
  <path id="13" class="fil6" d="M61735.85 6888.89c56.15,51.79 132.74,40 229.7,-35.3 96.99,-75.31 201.65,-190.64 313.93,-345.98 112.28,-155.34 222.03,-338.92 329.22,-550.74 107.19,-211.82 196.51,-430.71 267.98,-656.66 56.18,-155.34 103.38,-309.51 141.66,-462.48 38.28,-152.98 62.52,-304.78 72.75,-455.42 250.1,-89.43 465.76,-128.26 646.96,-116.5 181.22,11.76 321.6,62.38 421.12,151.81 99.55,89.43 156.98,210.66 172.27,363.63 15.32,152.98 -15.29,325.97 -91.87,518.97 -81.64,207.13 -201.62,411.89 -359.85,614.29 -158.23,202.4 -344.53,388.35 -558.94,557.81 188.86,-4.7 377.75,-64.71 566.59,-180.05 188.86,-115.34 347.12,-281.27 474.72,-497.79l183.75 98.85c-199.07,305.98 -432.57,521.33 -700.55,646.07 -268.01,124.73 -539.79,175.35 -815.44,151.81 -209.3,136.52 -426.21,245.96 -650.82,328.33 -224.58,82.37 -444.08,123.56 -658.46,123.56 -239.9,0 -432.57,-40 -578.07,-120.03 -145.47,-80.03 -252.66,-181.22 -321.57,-303.62 -68.91,-122.4 -102.1,-256.55 -99.52,-402.47 2.56,-145.91 34.44,-287.13 95.71,-423.65l780.97 -1454.53c244.99,14.12 496.4,9.42 754.15,-14.12 257.78,-23.55 486.2,-63.55 685.29,-120.03l-1133.18 2118.25c-51.04,98.85 -86.79,176.52 -107.19,233.01 -20.4,56.49 -34.47,98.85 -42.11,127.09 -7.67,28.24 -11.48,49.43 -11.48,63.55 0,14.12 -2.56,28.24 -7.67,42.36z"/>
  <path id="14" class="fil6" d="M65839.77 6910.07c132.74,0 283.29,-18.82 451.75,-56.49 168.43,-37.67 340.7,-98.85 516.8,-183.58 176.1,-84.73 347.12,-198.87 512.99,-342.45 165.9,-143.58 312.65,-321.27 440.27,-533.09l183.75 98.85c-245.02,381.28 -565.31,682.54 -960.91,903.79 -395.57,221.25 -820.5,331.86 -1274.81,331.86 -352.21,0 -638.06,-48.26 -857.53,-144.75 -219.5,-96.49 -376.45,-224.78 -470.88,-384.81 -94.46,-160.04 -130.18,-340.09 -107.19,-540.15 22.96,-200.07 98.27,-403.63 225.86,-610.76 132.71,-221.25 302.42,-409.53 509.16,-564.87 206.74,-155.34 424.93,-278.9 654.63,-370.69 229.7,-91.79 459.4,-154.17 689.1,-187.11 229.7,-32.94 436.44,-40 620.19,-21.18 199.07,23.55 357.29,69.44 474.72,137.69 117.39,68.25 202.9,148.28 256.5,240.07 53.6,91.79 80.39,189.47 80.39,293.02 0,103.55 -17.87,202.4 -53.6,296.55 -66.36,164.76 -165.9,316.57 -298.61,455.42 -132.74,138.85 -293.52,255.36 -482.36,349.51 -188.86,94.15 -400.72,164.76 -635.5,211.82 -234.79,47.06 -487.45,63.55 -758.01,49.43 -56.15,178.88 -63.8,318.9 -22.96,420.12 40.84,101.21 142.91,151.81 306.26,151.81zm99.55 -1341.56c-61.27,98.85 -114.86,193.01 -160.79,282.43 -45.95,89.43 -89.32,174.16 -130.15,254.19 122.48,-61.18 246.27,-165.93 371.33,-314.21 125.07,-148.28 269.26,-351.87 432.6,-610.76 122.51,-193.01 206.71,-344.81 252.66,-455.42 45.95,-110.61 71.47,-177.69 76.56,-201.23 -56.15,-47.06 -149.31,15.29 -279.46,187.11 -130.15,171.82 -317.74,457.79 -562.75,857.89z"/>
  <path id="15" class="fil6" d="M68649.76 4325.81c280.71,-56.49 512.97,-80.03 696.74,-70.61 183.75,9.42 334.33,37.67 451.73,84.73 117.42,47.06 205.46,108.28 264.17,183.58 58.68,75.31 103.35,152.98 133.99,233.01 45.92,150.64 29.36,316.57 -49.79,497.79 -79.11,181.22 -177.35,368.33 -294.78,561.34 -51.04,80.03 -109.75,163.57 -176.1,250.66 -66.33,87.09 -126.32,168.29 -179.91,243.6 -53.6,75.31 -94.46,141.22 -122.51,197.7 -28.08,56.49 -26.8,96.49 3.81,120.03 40.86,37.67 86.79,49.43 137.83,35.3 51.04,-14.12 105.94,-44.73 164.62,-91.79 58.68,-47.06 118.67,-104.74 179.94,-172.99 61.24,-68.25 122.51,-140.05 183.75,-215.36 61.24,-75.31 118.67,-149.44 172.27,-222.42 53.6,-72.97 90.62,-125.93 111.03,-158.87l176.1 91.79c-56.15,75.31 -119.95,158.87 -191.42,250.66 -71.47,91.79 -149.31,185.94 -233.54,282.43 -84.2,96.49 -172.27,189.47 -264.14,278.9 -91.87,89.43 -183.75,167.1 -275.62,233.01 -91.9,65.91 -190.17,115.34 -294.8,148.28 -104.61,32.94 -210.55,52.96 -317.74,60.02 -107.19,7.06 -210.55,1.17 -310.09,-17.65 -99.55,-18.82 -187.58,-47.06 -264.14,-84.73 -265.42,-122.4 -398.16,-314.21 -398.16,-575.46 0,-261.25 107.19,-544.85 321.57,-850.83 158.23,-216.52 289.69,-407.16 394.32,-571.93 104.63,-164.76 151.86,-277.74 141.66,-338.92 -10.23,-37.67 -21.71,-69.44 -34.47,-95.32 -12.76,-25.88 -44.67,-41.2 -95.71,-45.9l-38.28 21.18c-25.52,70.61 -68.91,169.46 -130.15,296.55 -61.27,127.09 -130.18,262.42 -206.74,406 -76.56,143.58 -155.7,282.43 -237.34,416.59 -81.67,134.16 -150.58,241.24 -206.74,321.27l-176.1 -91.79c81.67,-136.52 155.7,-260.08 222.05,-370.69 66.33,-110.61 126.32,-216.52 179.91,-317.74 53.6,-101.21 105.94,-204.76 156.98,-310.68 51.04,-105.91 102.08,-222.42 153.11,-349.51 -40.84,-23.55 -67.63,-57.65 -80.39,-102.38 -12.73,-44.73 -19.13,-97.68 -19.13,-158.87l352.21 0zm1676.78 1475.71l-7.67 -7.06c35.72,-32.94 38.31,-30.61 7.67,7.06z"/>
  <path id="16" class="fil6" d="M71628.15 6380.51c30.63,-9.42 63.83,-34.14 99.55,-74.14 35.72,-40 89.32,-114.14 160.79,-222.42l22.96 -35.3 926.44 -1694.6c245.02,14.12 495.12,15.29 750.37,3.53 255.22,-11.76 500.23,-29.41 735.02,-52.96l-1309.28 2400.68c-56.15,108.28 -117.39,214.19 -183.75,317.74 -66.36,103.55 -135.27,202.4 -206.74,296.55 137.83,-103.55 278.21,-216.52 421.12,-338.92 142.91,-122.4 280.74,-249.49 413.45,-381.28 132.74,-131.79 256.5,-265.95 371.36,-402.47 114.84,-136.52 213.1,-270.67 294.78,-402.47l183.75 91.79c-127.6,188.28 -285.85,384.81 -474.72,589.58 -188.84,204.76 -385.37,398.94 -589.55,582.52 -204.15,183.58 -403.25,344.81 -597.2,483.67 -193.98,138.85 -359.88,238.9 -497.68,300.09 -229.7,193.01 -481.11,321.27 -754.17,384.81 -273.09,63.55 -570.43,17.65 -892,-137.69 -117.42,-51.79 -207.99,-117.67 -271.81,-197.7 -63.83,-80.03 -104.63,-161.23 -122.51,-243.6 -17.87,-82.37 -14.04,-156.51 11.48,-222.42 25.55,-65.91 68.91,-110.61 130.18,-134.16 45.92,-14.12 96.96,-12.95 153.11,3.53 56.15,16.48 105.94,50.59 149.31,102.38 43.39,51.79 76.56,117.67 99.55,197.7 22.96,80.03 24.24,176.52 3.81,289.49 35.72,9.42 74.03,14.12 114.86,14.12 40.84,0 81.64,-10.59 122.51,-31.77 40.84,-21.18 85.48,-57.65 133.99,-109.44 48.51,-51.79 100.8,-127.09 156.95,-225.95l390.49 -748.45 199.07 -254.19 -30.61 0c-158.23,136.52 -310.09,234.17 -455.56,293.02 -145.5,58.85 -287.13,92.96 -424.96,102.38 -148.03,9.42 -278.21,-12.95 -390.49,-67.08 -112.28,-54.12 -197.81,-129.46 -256.5,-225.95 -58.68,-96.49 -86.79,-209.46 -84.23,-338.92 2.59,-129.46 44.67,-269.48 126.34,-420.12l765.65 -1433.35c117.42,9.42 245.02,11.76 382.84,7.06 137.8,-4.7 275.62,-11.76 413.45,-21.18 137.83,-9.42 269.26,-24.71 394.32,-45.9 125.07,-21.18 238.62,-45.9 340.7,-74.14l-849.86 1588.69c-91.9,160.04 -149.31,283.6 -172.3,370.69 -22.96,87.09 8.92,125.93 95.71,116.5z"/>
  <path id="17" class="fil7 str0" d="M14035.39 5716.79l-84.23 7.06 -467.04 -586.05 857.53 0 597.22 -1108.55c91.87,-178.88 183.75,-333.03 275.62,-462.48 91.87,-129.46 196.51,-224.78 313.93,-285.96l405.8 -134.16 0 -56.49c-117.42,9.42 -236.09,31.77 -356.04,67.08 -119.95,35.3 -243.74,89.43 -371.33,162.4 -127.6,72.97 -262.89,170.63 -405.8,293.02 -142.91,122.4 -298.61,277.74 -467.04,466.01 -137.83,-112.97 -236.09,-234.17 -294.8,-363.63 -58.68,-129.46 -84.2,-256.55 -76.56,-381.28 7.67,-124.73 45.95,-242.43 114.86,-353.04 68.91,-110.61 162.04,-201.23 279.46,-271.84 173.55,-103.55 373.89,-161.23 601.03,-172.99 227.14,-11.76 453,8.23 677.62,60.02 224.61,51.79 437.69,127.09 639.31,225.95 201.65,98.85 366.25,207.13 493.87,324.8l-1010.67 1991.15 911.12 0 1286.29 -2464.23c102.1,18.82 219.5,28.24 352.21,28.24 132.74,0 266.73,-3.53 401.97,-10.59 135.27,-7.06 265.42,-18.82 390.49,-35.3 125.07,-16.48 233.54,-31.77 325.41,-45.9l-1921.8 3770.48c-102.1,193.01 -165.87,343.62 -191.42,451.89 -25.52,108.28 -17.87,204.76 22.99,289.49 -142.91,42.36 -282.04,72.97 -417.28,91.79 -135.27,18.82 -260.33,22.35 -375.2,10.59 -114.84,-11.76 -215.63,-38.83 -302.42,-81.2 -86.79,-42.36 -153.14,-101.21 -199.07,-176.52 -76.58,-131.79 -98.27,-263.61 -65.08,-395.41 33.16,-131.79 77.81,-251.83 133.99,-360.1l375.17 -720.2 -949.43 91.79 -788.62 1546.32c-102.1,-14.12 -215.66,-21.18 -340.73,-21.18 -125.07,0 -256.5,5.89 -394.32,17.65 -137.8,11.76 -274.37,27.08 -409.61,45.9 -135.27,18.82 -261.58,40 -379.01,63.55l811.61 -1518.08z"/>
  <path id="18" class="fil7 str0" d="M18407.29 5392c158.23,-225.95 334.33,-422.48 528.31,-589.58 193.98,-167.1 396.88,-294.19 608.68,-381.28 211.82,-87.09 431.35,-129.46 658.46,-127.09 227.14,2.36 455.59,60.02 685.29,172.99 96.96,47.06 201.62,81.2 313.9,102.38 112.31,21.18 224.61,31.77 336.89,31.77 112.28,0 223.31,-10.59 333.05,-31.77 109.78,-21.18 213.13,-48.26 310.09,-81.2 -56.15,103.55 -127.6,234.17 -214.38,391.88 -86.79,157.7 -174.82,317.74 -264.14,480.14 -89.32,162.4 -169.71,310.68 -241.18,444.83 -71.47,134.16 -122.51,227.11 -153.14,278.9 -102.1,178.88 -169.71,315.37 -202.9,409.53 -33.19,94.15 -19.13,141.22 42.11,141.22 15.32,0 44.67,-11.76 88.07,-35.3 43.37,-23.55 100.8,-65.91 172.27,-127.09 71.47,-61.18 154.39,-145.91 248.82,-254.19 94.46,-108.28 195.26,-249.49 302.45,-423.65l183.75 98.85c-66.33,94.15 -150.56,211.82 -252.66,353.04 -102.1,141.22 -227.14,277.74 -375.17,409.53 -148.03,131.79 -321.57,244.77 -520.64,338.92 -199.09,94.15 -428.79,141.22 -689.1,141.22 -66.36,0 -133.99,-7.06 -202.9,-21.18 -68.91,-14.12 -132.74,-36.47 -191.42,-67.08 -58.68,-30.61 -109.75,-71.78 -153.14,-123.56 -43.37,-51.79 -70.16,-117.67 -80.39,-197.7l114.86 -233.01 -22.96 0 -84.23 112.97c-158.23,207.13 -302.45,345.98 -432.6,416.59 -130.15,70.61 -279.46,105.91 -447.92,105.91 -178.66,0 -331.78,-45.9 -459.4,-137.69 -127.6,-91.79 -214.38,-215.36 -260.31,-370.69 -45.95,-155.34 -45.95,-338.92 0,-550.74 45.92,-211.82 153.11,-437.77 321.57,-677.84zm911.12 1320.37c51.04,-4.7 109.75,-45.9 176.1,-123.56 66.36,-77.67 141.66,-183.58 225.86,-317.74 84.23,-134.16 176.1,-290.66 275.65,-469.54 99.52,-178.88 202.9,-369.53 310.09,-571.93l359.85 -684.9c-66.36,-4.7 -136.55,23.55 -210.55,84.73 -74,61.18 -150.58,141.22 -229.7,240.07 -79.14,98.85 -159.54,209.46 -241.18,331.86 -81.67,122.4 -160.79,242.43 -237.37,360.1 -260.31,395.41 -416,687.26 -467.04,875.54 -51.04,188.28 -38.28,280.07 38.28,275.37z"/>
  <path id="19" class="fil7 str0" d="M22840.43 4325.81c280.74,-56.49 512.99,-80.03 696.77,-70.61 183.75,9.42 334.33,37.67 451.73,84.73 117.42,47.06 205.46,108.28 264.17,183.58 58.68,75.31 103.35,152.98 133.99,233.01 45.92,150.64 29.36,316.57 -49.79,497.79 -79.11,181.22 -177.35,368.33 -294.78,561.34 -51.04,80.03 -109.75,163.57 -176.1,250.66 -66.33,87.09 -126.32,168.29 -179.91,243.6 -53.6,75.31 -94.46,141.22 -122.51,197.7 -28.08,56.49 -26.8,96.49 3.81,120.03 40.86,37.67 86.79,49.43 137.83,35.3 51.04,-14.12 105.94,-44.73 164.62,-91.79 58.68,-47.06 118.67,-104.74 179.94,-172.99 61.24,-68.25 122.48,-140.05 183.75,-215.36 61.24,-75.31 118.67,-149.44 172.27,-222.42 53.6,-72.97 90.62,-125.93 111.03,-158.87l176.1 91.79c-56.15,75.31 -119.95,158.87 -191.42,250.66 -71.47,91.79 -149.31,185.94 -233.54,282.43 -84.2,96.49 -172.27,189.47 -264.14,278.9 -91.87,89.43 -183.75,167.1 -275.65,233.01 -91.87,65.91 -190.14,115.34 -294.78,148.28 -104.61,32.94 -210.55,52.96 -317.74,60.02 -107.19,7.06 -210.55,1.17 -310.09,-17.65 -99.55,-18.82 -187.58,-47.06 -264.14,-84.73 -265.42,-122.4 -398.16,-314.21 -398.16,-575.46 0,-261.25 107.19,-544.85 321.57,-850.83 158.23,-216.52 289.69,-407.16 394.32,-571.93 104.63,-164.76 151.86,-277.74 141.66,-338.92 -10.23,-37.67 -21.71,-69.44 -34.47,-95.32 -12.76,-25.88 -44.67,-41.2 -95.71,-45.9l-38.28 21.18c-25.52,70.61 -68.91,169.46 -130.15,296.55 -61.27,127.09 -130.18,262.42 -206.74,406 -76.56,143.58 -155.7,282.43 -237.34,416.59 -81.67,134.16 -150.58,241.24 -206.74,321.27l-176.1 -91.79c81.67,-136.52 155.7,-260.08 222.05,-370.69 66.33,-110.61 126.32,-216.52 179.91,-317.74 53.6,-101.21 105.94,-204.76 156.98,-310.68 51.01,-105.91 102.08,-222.42 153.11,-349.51 -40.84,-23.55 -67.63,-57.65 -80.39,-102.38 -12.73,-44.73 -19.13,-97.68 -19.13,-158.87l352.18 0zm1676.81 1475.71l-7.67 -7.06c35.72,-32.94 38.31,-30.61 7.67,7.06z"/>
  <path id="20" class="fil7 str0" d="M26224.65 5709.73c25.52,-56.49 71.47,-135.32 137.83,-236.54 66.33,-101.21 131.43,-203.6 195.23,-307.15 63.83,-103.55 116.11,-197.7 156.98,-282.43 40.84,-84.73 51.01,-138.85 30.61,-162.4 -40.84,-14.12 -80.39,-7.06 -118.67,21.18 -38.28,28.24 -88.04,88.26 -149.31,180.05 -61.24,91.79 -141.63,225.95 -241.18,402.47 -99.52,176.52 -230.95,406 -394.32,688.43l-581.88 1115.61 -1462.42 0 1408.83 -2725.48c86.79,23.55 190.14,34.14 310.09,31.77 119.92,-2.36 247.57,-10.59 382.81,-24.71 135.27,-14.12 273.09,-30.61 413.45,-49.43 140.38,-18.82 271.81,-37.67 394.32,-56.49l-367.52 345.98 15.32 42.36c188.86,-183.58 394.32,-307.15 616.38,-370.69 222.03,-63.55 430.02,-74.14 623.99,-31.77 86.79,23.55 173.55,56.49 260.33,98.85 86.79,42.36 155.7,96.49 206.71,162.4l-191.39 331.86 15.32 28.24c183.75,-258.89 398.13,-436.6 643.15,-533.09 245.02,-96.49 482.36,-132.99 712.06,-109.44 117.39,14.12 216.94,50.59 298.61,109.44 81.64,58.85 135.24,142.38 160.79,250.66 20.4,89.43 28.05,170.63 22.96,243.6 -5.09,72.97 -20.4,147.11 -45.95,222.42 -25.52,75.31 -63.8,155.34 -114.84,240.07 -51.04,84.73 -112.28,183.58 -183.75,296.55 -45.95,80.03 -111.03,176.52 -195.26,289.49 -84.23,112.97 -163.34,222.42 -237.34,328.33 -74,105.91 -126.34,196.54 -156.98,271.84 -30.61,75.31 -12.73,112.97 53.6,112.97 35.72,0 91.9,-27.08 168.46,-81.2 76.56,-54.12 156.95,-123.56 241.18,-208.29 84.23,-84.73 168.43,-176.52 252.66,-275.37 84.23,-98.85 156.98,-193.01 218.22,-282.43l183.75 98.85c-91.87,117.67 -193.98,248.3 -306.26,391.88 -112.28,143.58 -237.34,277.74 -375.17,403.63 -137.83,125.93 -292.22,231.84 -463.23,317.74 -170.99,85.93 -358.57,129.46 -562.75,129.46 -199.07,0 -368.78,-47.06 -509.16,-141.22 -140.38,-94.15 -213.1,-223.58 -218.22,-388.35 0,-150.64 38.28,-291.86 114.86,-423.65 76.56,-131.79 170.99,-287.13 283.29,-466.01 127.6,-207.13 228.42,-371.86 302.42,-494.26 74,-122.4 130.18,-217.72 168.46,-285.96 38.28,-68.25 58.68,-116.5 61.24,-144.75 2.56,-28.24 -3.84,-49.43 -19.13,-63.55 -40.86,-4.7 -77.84,5.89 -111.03,31.77 -33.19,25.88 -74,81.2 -122.51,165.93 -48.51,84.73 -113.58,202.4 -195.26,353.04 -81.64,150.64 -191.39,345.98 -329.22,586.05l-681.43 1270.95 -1462.42 0 742.69 -1419.23zm505.32 -1419.23l0 14.12c-5.09,0 -8.92,1.17 -11.48,3.53 -2.56,2.36 -6.39,3.53 -11.48,3.53l22.96 -21.18z"/>
  <path id="21" class="fil7 str0" d="M31921.16 4304.63c245.02,0 460.65,38.83 646.98,116.5 186.31,77.67 334.31,183.58 444.08,317.74 109.75,134.16 178.66,289.49 206.71,466.01 28.08,176.52 3.84,361.27 -72.72,554.27 -96.99,244.77 -239.93,468.38 -428.76,670.78 148.03,-47.06 288.38,-123.56 421.09,-229.48 132.74,-105.91 247.57,-241.24 344.56,-406l183.75 98.85c-163.34,254.19 -353.46,444.83 -570.43,571.93 -216.94,127.09 -440.25,202.4 -669.94,225.95 -188.84,136.52 -403.25,244.77 -643.15,324.8 -239.93,80.03 -505.32,120.03 -796.29,120.03 -311.34,0 -562.75,-49.43 -754.17,-148.28 -191.42,-98.85 -333.05,-223.58 -424.93,-374.22 -91.87,-150.64 -140.38,-318.9 -145.47,-504.85 -5.11,-185.94 25.52,-363.63 91.87,-533.09 66.33,-174.16 167.18,-337.75 302.42,-490.73 135.27,-152.98 297.36,-287.13 486.2,-402.47 188.86,-115.34 400.72,-207.13 635.5,-275.37 234.79,-68.25 482.36,-102.38 742.69,-102.38zm176.1 190.64c-61.27,0 -127.62,36.47 -199.09,109.44 -71.47,72.97 -145.47,165.93 -222.03,278.9 -76.56,112.97 -154.39,237.71 -233.54,374.22 -79.11,136.52 -151.86,268.31 -218.22,395.41 -76.56,145.91 -153.11,294.19 -229.67,444.83 -76.58,150.64 -140.38,288.33 -191.42,413.06 -51.04,124.73 -80.39,225.95 -88.07,303.62 -7.64,77.67 21.71,116.5 88.07,116.5 61.24,0 128.9,-41.2 202.9,-123.56 74,-82.37 149.31,-183.58 225.86,-303.62 76.56,-120.03 154.39,-251.83 233.54,-395.41 79.11,-143.58 151.86,-278.9 218.19,-406 66.36,-131.79 136.57,-269.48 210.57,-413.06 74,-143.58 135.24,-274.2 183.75,-391.88 48.51,-117.67 77.84,-214.19 88.07,-289.49 10.2,-75.31 -12.76,-112.97 -68.91,-112.97z"/>
  <path id="22" class="fil7 str0" d="M34187.49 4403.48c86.79,23.55 190.17,34.14 310.09,31.77 119.95,-2.36 248.85,-10.59 386.68,-24.71 137.8,-14.12 276.9,-30.61 417.28,-49.43 140.35,-18.82 271.79,-37.67 394.29,-56.49l-375.17 367.16 22.96 49.43c209.3,-197.7 436.44,-330.69 681.45,-398.94 245.02,-68.25 467.04,-78.84 666.11,-31.77 102.1,23.55 195.26,63.55 279.49,120.03 84.2,56.49 144.19,129.46 179.91,218.89 30.63,70.61 43.39,141.22 38.28,211.82 -5.09,70.61 -22.96,144.75 -53.6,222.42 -30.61,77.67 -72.72,162.4 -126.32,254.19 -53.6,91.79 -111.03,196.54 -172.3,314.21 -51.01,98.85 -119.92,207.13 -206.71,324.8 -86.79,117.67 -165.87,225.95 -237.37,324.8 -71.47,98.85 -122.48,182.41 -153.11,250.66 -30.63,68.25 -12.76,102.38 53.6,102.38 35.72,0 91.87,-27.08 168.43,-81.2 76.58,-54.12 156.98,-123.56 241.18,-208.29 84.23,-84.73 168.46,-176.52 252.69,-275.37 84.2,-98.85 156.95,-193.01 218.19,-282.43l183.78 98.85c-91.87,117.67 -192.7,248.3 -302.45,391.88 -109.75,143.58 -234.79,277.74 -375.17,403.63 -140.38,125.93 -294.78,231.84 -463.21,317.74 -168.46,85.93 -354.76,129.46 -558.94,129.46 -204.15,0 -379.01,-48.26 -524.47,-144.75 -145.47,-96.49 -223.31,-227.11 -233.54,-391.88 -5.09,-122.4 34.47,-255.36 118.7,-398.94 84.2,-143.58 185,-304.78 302.42,-483.67 132.74,-202.4 237.34,-364.8 313.93,-487.2 76.56,-122.4 132.71,-218.89 168.43,-289.49 35.72,-70.61 53.6,-120.03 53.6,-148.28 0,-28.24 -7.64,-49.43 -22.96,-63.55 -40.84,-9.42 -86.79,0 -137.83,28.24 -51.04,28.24 -113.58,88.26 -187.58,180.05 -74,91.79 -165.87,222.42 -275.62,391.88 -109.78,169.46 -243.77,395.41 -401.97,677.84l-589.58 1129.73 -1462.4 0 1408.8 -2725.48zm1523.66 -112.97l0 14.12c-5.09,0 -10.23,2.36 -15.32,7.06l15.32 -21.18z"/>
  <path id="23" class="fil7 str0" d="M36844.33 6542.91c20.4,-150.64 82.95,-321.27 187.58,-511.91 104.63,-190.64 215.66,-396.57 333.05,-617.82l528.31 -974.39c112.28,9.42 236.09,11.76 371.33,7.06 135.27,-4.7 271.81,-11.76 409.64,-21.18 137.83,-9.42 270.54,-24.71 398.13,-45.9 127.6,-21.18 245.02,-45.9 352.21,-74.14l-957.08 1779.33c-102.1,178.88 -170.99,315.37 -206.71,409.53 -35.72,94.15 -30.63,141.22 15.29,141.22 15.32,0 47.23,-11.76 95.71,-35.3 48.51,-23.55 109.78,-65.91 183.78,-127.09 74,-61.18 159.51,-145.91 256.5,-254.19 96.96,-108.28 199.07,-249.49 306.26,-423.65l183.75 98.85c-76.56,108.28 -170.99,233.01 -283.29,374.22 -112.28,141.22 -244.99,276.54 -398.13,406 -153.14,129.46 -326.66,238.9 -520.64,328.33 -193.98,89.43 -408.36,134.16 -643.17,134.16 -86.79,0 -170.99,-11.76 -252.66,-35.3 -81.64,-23.55 -151.86,-58.85 -210.55,-105.91 -58.68,-47.06 -102.1,-108.28 -130.18,-183.58 -28.05,-75.31 -34.44,-164.76 -19.13,-268.31zm2993.71 -2838.45c-61.24,98.85 -136.55,183.58 -225.86,254.19 -89.32,70.61 -187.58,123.56 -294.78,158.87 -107.19,35.3 -216.94,50.59 -329.22,45.9 -112.31,-4.7 -219.5,-28.24 -321.6,-70.61 -224.58,-108.28 -366.25,-256.55 -424.93,-444.83 -58.68,-188.28 -26.8,-385.98 95.71,-593.11 56.15,-98.85 128.9,-180.05 218.22,-243.6 89.32,-63.55 187.58,-110.61 294.78,-141.22 107.19,-30.61 216.94,-42.36 329.22,-35.3 112.31,7.06 219.5,31.77 321.57,74.14 209.3,108.28 343.28,255.36 401.99,441.3 58.68,185.94 37,370.69 -65.1,554.27z"/>
  <path id="24" class="fil7 str0" d="M40596.05 6910.07c127.6,0 270.54,-18.82 428.76,-56.49 158.23,-37.67 320.32,-98.85 486.2,-183.58 165.87,-84.73 329.25,-198.87 490.03,-342.45 160.79,-143.58 304.98,-321.27 432.6,-533.09l183.75 98.85c-239.93,371.86 -543.63,670.78 -911.12,896.72 -367.52,225.95 -783.56,338.92 -1248.04,338.92 -352.18,0 -635.47,-50.59 -849.86,-151.81 -214.41,-101.21 -367.52,-231.84 -459.4,-391.88 -91.9,-160.04 -127.62,-340.09 -107.19,-540.15 20.4,-200.07 91.87,-398.94 214.38,-596.64 132.71,-221.25 301.17,-409.53 505.32,-564.87 204.18,-155.34 421.12,-278.9 650.82,-370.69 229.7,-91.79 459.4,-154.17 689.1,-187.11 229.67,-32.94 438.97,-40 627.83,-21.18 183.75,23.55 334.33,64.71 451.73,123.56 117.42,58.85 206.74,130.63 267.98,215.36 61.27,84.73 94.46,177.69 99.55,278.9 5.09,101.21 -10.23,201.23 -45.95,300.09 -40.84,117.67 -111,231.84 -210.55,342.45 -99.55,110.61 -224.61,202.4 -375.17,275.37 -150.56,72.97 -322.85,115.34 -516.83,127.09 -193.98,11.76 -403.22,-22.35 -627.83,-102.38 117.42,-193.01 211.82,-341.28 283.29,-444.83 71.47,-103.55 137.83,-200.07 199.07,-289.49 158.23,-221.25 256.5,-373.06 294.78,-455.42 38.28,-82.37 47.2,-137.69 26.8,-165.93 -35.72,-47.06 -127.6,17.65 -275.62,194.17 -148.05,176.52 -344.56,464.85 -589.55,864.95 -122.51,197.7 -219.5,378.92 -290.97,543.68 -71.47,164.76 -113.58,305.98 -126.32,423.65 -12.76,117.67 5.09,209.46 53.6,275.37 48.48,65.91 131.4,98.85 248.82,98.85z"/>
  <path id="25" class="fil7 str0" d="M42640.35 5392c158.23,-225.95 334.33,-422.48 528.31,-589.58 193.98,-167.1 396.88,-294.19 608.7,-381.28 211.82,-87.09 431.32,-129.46 658.46,-127.09 227.14,2.36 455.56,60.02 685.26,172.99 96.96,47.06 201.62,81.2 313.93,102.38 112.28,21.18 224.58,31.77 336.89,31.77 112.28,0 223.31,-10.59 333.05,-31.77 109.75,-21.18 213.1,-48.26 310.09,-81.2 -56.15,103.55 -127.6,234.17 -214.38,391.88 -86.79,157.7 -174.85,317.74 -264.17,480.14 -89.32,162.4 -169.71,310.68 -241.18,444.83 -71.47,134.16 -122.51,227.11 -153.11,278.9 -102.1,178.88 -169.71,315.37 -202.9,409.53 -33.19,94.15 -19.15,141.22 42.11,141.22 15.29,0 44.67,-11.76 88.04,-35.3 43.37,-23.55 100.8,-65.91 172.27,-127.09 71.47,-61.18 154.39,-145.91 248.85,-254.19 94.43,-108.28 195.23,-249.49 302.42,-423.65l183.78 98.85c-66.36,94.15 -150.58,211.82 -252.69,353.04 -102.08,141.22 -227.11,277.74 -375.17,409.53 -148.03,131.79 -321.57,244.77 -520.64,338.92 -199.07,94.15 -428.76,141.22 -689.1,141.22 -66.36,0 -133.99,-7.06 -202.9,-21.18 -68.91,-14.12 -132.71,-36.47 -191.42,-67.08 -58.68,-30.61 -109.75,-71.78 -153.11,-123.56 -43.39,-51.79 -70.19,-117.67 -80.39,-197.7l114.84 -233.01 -22.96 0 -84.23 112.97c-158.23,207.13 -302.42,345.98 -432.6,416.59 -130.15,70.61 -279.46,105.91 -447.89,105.91 -178.66,0 -331.8,-45.9 -459.4,-137.69 -127.6,-91.79 -214.38,-215.36 -260.33,-370.69 -45.92,-155.34 -45.92,-338.92 0,-550.74 45.95,-211.82 153.14,-437.77 321.57,-677.84zm911.12 1320.37c51.04,-4.7 109.78,-45.9 176.1,-123.56 66.36,-77.67 141.66,-183.58 225.89,-317.74 84.2,-134.16 176.1,-290.66 275.62,-469.54 99.55,-178.88 202.9,-369.53 310.09,-571.93l359.85 -684.9c-66.33,-4.7 -136.55,23.55 -210.55,84.73 -74,61.18 -150.56,141.22 -229.7,240.07 -79.11,98.85 -159.51,209.46 -241.18,331.86 -81.67,122.4 -160.79,242.43 -237.34,360.1 -260.33,395.41 -416.03,687.26 -467.07,875.54 -51.04,188.28 -38.28,280.07 38.28,275.37z"/>
  <path id="26" class="fil7 str0" d="M49600.18 5088.38c-122.51,108.28 -227.14,218.89 -313.93,331.86 -86.79,112.97 -160.79,240.07 -222.03,381.28 -102.1,240.07 -114.86,454.26 -38.28,642.54l1669.13 -3184.43c102.08,14.12 218.19,20.01 348.37,17.65 130.15,-2.36 264.14,-9.42 401.97,-21.18 137.83,-11.76 274.37,-27.08 409.61,-45.9 135.27,-18.82 256.5,-37.67 363.69,-56.49l-1837.57 3502.17c-148.03,-18.82 -324.13,-23.55 -528.31,-14.12 -204.15,9.42 -410.89,28.24 -620.19,56.49 81.67,56.49 181.22,101.21 298.61,134.16 117.42,32.94 257.78,51.79 421.12,56.49 260.33,14.12 492.59,-23.55 696.74,-112.97 204.18,-89.43 393.04,-222.42 566.59,-398.94 173.55,-176.52 333.05,-395.41 478.52,-656.66 145.5,-261.25 289.69,-558.97 432.6,-893.19 112.31,-249.49 201.65,-488.36 267.98,-716.67 66.36,-228.31 99.55,-430.71 99.55,-607.23 0,-176.52 -38.28,-322.44 -114.84,-437.77 -76.58,-115.34 -199.09,-187.11 -367.52,-215.36 -183.78,-32.94 -368.78,-37.67 -555.11,-14.12 -186.31,23.55 -364.94,71.78 -535.96,144.75 -171.02,72.97 -329.25,168.29 -474.72,285.96 -145.47,117.67 -266.7,254.19 -363.69,409.53 -102.1,160.04 -182.5,333.03 -241.18,518.97 -58.68,185.94 -88.04,396.57 -88.04,631.94 -234.81,47.06 -435.16,38.83 -601.06,-24.71 -165.87,-63.55 -289.69,-160.04 -371.33,-289.49 -81.67,-129.46 -118.67,-277.74 -111.03,-444.83 7.67,-167.1 67.63,-333.03 179.94,-497.79 122.51,-178.88 288.38,-338.92 497.68,-480.14 209.3,-141.22 454.28,-255.36 735.02,-342.45 280.74,-87.09 594.67,-143.58 941.76,-169.46 347.12,-25.88 719.73,-15.29 1117.86,31.77 331.8,42.36 603.62,118.87 815.44,229.48 211.8,110.61 377.73,241.24 497.68,391.88 119.92,150.64 201.62,314.21 244.99,490.73 43.39,176.52 61.27,353.04 53.6,529.56 -7.64,176.52 -33.19,345.98 -76.56,508.38 -43.37,162.4 -90.62,302.45 -141.63,420.12 -183.78,418.95 -413.48,764.93 -689.1,1037.94 -275.65,273.01 -580.63,486.03 -914.96,639 -334.33,152.98 -691.66,250.66 -1071.94,293.02 -380.26,42.36 -766.91,40 -1159.95,-7.06 -403.25,-47.06 -741.44,-124.73 -1014.51,-233.01 -273.06,-108.28 -486.2,-233.01 -639.31,-374.22 -153.14,-141.22 -248.85,-291.86 -287.13,-451.89 -38.28,-160.04 -21.71,-317.74 49.76,-473.08 66.36,-164.76 162.07,-300.09 287.13,-406 125.07,-105.91 267.98,-180.05 428.76,-222.42 160.79,-42.36 334.33,-54.12 520.64,-35.3 186.33,18.82 371.36,65.91 555.11,141.22z"/>
  <path id="27" class="fil7 str0" d="M55059.31 6910.07c132.74,0 283.29,-18.82 451.75,-56.49 168.43,-37.67 340.7,-98.85 516.8,-183.58 176.1,-84.73 347.12,-198.87 512.99,-342.45 165.9,-143.58 312.65,-321.27 440.27,-533.09l183.75 98.85c-245.02,381.28 -565.31,682.54 -960.91,903.79 -395.57,221.25 -820.5,331.86 -1274.81,331.86 -352.21,0 -638.06,-48.26 -857.53,-144.75 -219.5,-96.49 -376.45,-224.78 -470.88,-384.81 -94.46,-160.04 -130.18,-340.09 -107.19,-540.15 22.96,-200.07 98.27,-403.63 225.86,-610.76 132.71,-221.25 302.42,-409.53 509.16,-564.87 206.74,-155.34 424.96,-278.9 654.63,-370.69 229.7,-91.79 459.4,-154.17 689.1,-187.11 229.7,-32.94 436.44,-40 620.19,-21.18 199.07,23.55 357.29,69.44 474.72,137.69 117.42,68.25 202.9,148.28 256.5,240.07 53.6,91.79 80.39,189.47 80.39,293.02 0,103.55 -17.87,202.4 -53.6,296.55 -66.36,164.76 -165.87,316.57 -298.61,455.42 -132.71,138.85 -293.52,255.36 -482.36,349.51 -188.86,94.15 -400.72,164.76 -635.5,211.82 -234.79,47.06 -487.45,63.55 -758.01,49.43 -56.15,178.88 -63.8,318.9 -22.96,420.12 40.84,101.21 142.91,151.81 306.26,151.81zm99.55 -1341.56c-61.24,98.85 -114.84,193.01 -160.79,282.43 -45.95,89.43 -89.32,174.16 -130.15,254.19 122.51,-61.18 246.27,-165.93 371.33,-314.21 125.07,-148.28 269.26,-351.87 432.6,-610.76 122.51,-193.01 206.74,-344.81 252.66,-455.42 45.95,-110.61 71.47,-177.69 76.56,-201.23 -56.15,-47.06 -149.31,15.29 -279.46,187.11 -130.15,171.82 -317.74,457.79 -562.75,857.89z"/>
  <path id="28" class="fil7 str0" d="M56659.53 6542.91c15.32,-150.64 76.58,-321.27 183.78,-511.91 107.19,-190.64 219.47,-396.57 336.89,-617.82l1309.25 -2457.17c117.42,9.42 243.77,12.95 379.01,10.59 135.27,-2.36 270.56,-8.23 405.8,-17.65 135.27,-9.42 266.73,-24.71 394.32,-45.9 127.6,-21.18 245.02,-48.26 352.21,-81.2l-1738.05 3262.1c-214.38,400.1 -265.42,583.69 -153.14,550.74 20.4,-9.42 53.6,-27.08 99.55,-52.96 45.92,-25.88 103.35,-68.25 172.27,-127.09 68.91,-58.85 148.03,-141.22 237.34,-247.13 89.32,-105.91 187.58,-243.6 294.78,-413.06l183.78 98.85c-66.36,94.15 -151.86,210.66 -256.5,349.51 -104.63,138.85 -233.54,275.37 -386.65,409.53 -153.14,134.16 -331.8,248.3 -535.98,342.45 -204.15,94.15 -436.41,141.22 -696.74,141.22 -76.56,0 -153.11,-10.59 -229.7,-31.77 -76.56,-21.18 -142.91,-55.32 -199.07,-102.38 -56.15,-47.06 -99.55,-108.28 -130.15,-183.58 -30.63,-75.31 -38.28,-167.1 -22.99,-275.37z"/>
  <path id="29" class="fil7 str0" d="M58604.32 6542.91c20.4,-150.64 82.95,-321.27 187.58,-511.91 104.63,-190.64 215.66,-396.57 333.05,-617.82l528.31 -974.39c112.28,9.42 236.09,11.76 371.33,7.06 135.27,-4.7 271.81,-11.76 409.64,-21.18 137.83,-9.42 270.54,-24.71 398.13,-45.9 127.62,-21.18 245.02,-45.9 352.21,-74.14l-957.08 1779.33c-102.08,178.88 -170.99,315.37 -206.71,409.53 -35.72,94.15 -30.63,141.22 15.32,141.22 15.29,0 47.2,-11.76 95.68,-35.3 48.51,-23.55 109.78,-65.91 183.78,-127.09 74,-61.18 159.51,-145.91 256.5,-254.19 96.96,-108.28 199.07,-249.49 306.26,-423.65l183.75 98.85c-76.56,108.28 -170.99,233.01 -283.29,374.22 -112.28,141.22 -244.99,276.54 -398.13,406 -153.14,129.46 -326.66,238.9 -520.64,328.33 -193.98,89.43 -408.36,134.16 -643.17,134.16 -86.76,0 -170.99,-11.76 -252.66,-35.3 -81.64,-23.55 -151.86,-58.85 -210.55,-105.91 -58.68,-47.06 -102.1,-108.28 -130.15,-183.58 -28.08,-75.31 -34.47,-164.76 -19.15,-268.31zm2993.73 -2838.45c-61.27,98.85 -136.57,183.58 -225.89,254.19 -89.32,70.61 -187.58,123.56 -294.78,158.87 -107.19,35.3 -216.94,50.59 -329.22,45.9 -112.31,-4.7 -219.5,-28.24 -321.57,-70.61 -224.61,-108.28 -366.27,-256.55 -424.96,-444.83 -58.68,-188.28 -26.8,-385.98 95.71,-593.11 56.15,-98.85 128.9,-180.05 218.22,-243.6 89.32,-63.55 187.58,-110.61 294.78,-141.22 107.19,-30.61 216.94,-42.36 329.22,-35.3 112.31,7.06 219.5,31.77 321.6,74.14 209.27,108.28 343.26,255.36 401.97,441.3 58.68,185.94 37,370.69 -65.08,554.27z"/>
  <path id="30" class="fil7 str0" d="M61735.85 6888.89c56.15,51.79 132.74,40 229.7,-35.3 96.99,-75.31 201.65,-190.64 313.93,-345.98 112.28,-155.34 222.03,-338.92 329.22,-550.74 107.19,-211.82 196.51,-430.71 267.98,-656.66 56.18,-155.34 103.38,-309.51 141.66,-462.48 38.28,-152.98 62.52,-304.78 72.75,-455.42 250.1,-89.43 465.76,-128.26 646.96,-116.5 181.22,11.76 321.6,62.38 421.12,151.81 99.55,89.43 156.98,210.66 172.27,363.63 15.32,152.98 -15.29,325.97 -91.87,518.97 -81.64,207.13 -201.62,411.89 -359.85,614.29 -158.23,202.4 -344.53,388.35 -558.94,557.81 188.86,-4.7 377.75,-64.71 566.59,-180.05 188.86,-115.34 347.12,-281.27 474.72,-497.79l183.75 98.85c-199.07,305.98 -432.57,521.33 -700.55,646.07 -268.01,124.73 -539.79,175.35 -815.44,151.81 -209.3,136.52 -426.21,245.96 -650.82,328.33 -224.58,82.37 -444.08,123.56 -658.46,123.56 -239.9,0 -432.57,-40 -578.07,-120.03 -145.47,-80.03 -252.66,-181.22 -321.57,-303.62 -68.91,-122.4 -102.1,-256.55 -99.52,-402.47 2.56,-145.91 34.44,-287.13 95.71,-423.65l780.97 -1454.53c244.99,14.12 496.4,9.42 754.15,-14.12 257.78,-23.55 486.2,-63.55 685.29,-120.03l-1133.18 2118.25c-51.04,98.85 -86.79,176.52 -107.19,233.01 -20.4,56.49 -34.47,98.85 -42.11,127.09 -7.67,28.24 -11.48,49.43 -11.48,63.55 0,14.12 -2.56,28.24 -7.67,42.36z"/>
  <path id="31" class="fil7 str0" d="M65839.77 6910.07c132.74,0 283.29,-18.82 451.75,-56.49 168.43,-37.67 340.7,-98.85 516.8,-183.58 176.1,-84.73 347.12,-198.87 512.99,-342.45 165.9,-143.58 312.65,-321.27 440.27,-533.09l183.75 98.85c-245.02,381.28 -565.31,682.54 -960.91,903.79 -395.57,221.25 -820.5,331.86 -1274.81,331.86 -352.21,0 -638.06,-48.26 -857.53,-144.75 -219.5,-96.49 -376.45,-224.78 -470.88,-384.81 -94.46,-160.04 -130.18,-340.09 -107.19,-540.15 22.96,-200.07 98.27,-403.63 225.86,-610.76 132.71,-221.25 302.42,-409.53 509.16,-564.87 206.74,-155.34 424.93,-278.9 654.63,-370.69 229.7,-91.79 459.4,-154.17 689.1,-187.11 229.7,-32.94 436.44,-40 620.19,-21.18 199.07,23.55 357.29,69.44 474.72,137.69 117.39,68.25 202.9,148.28 256.5,240.07 53.6,91.79 80.39,189.47 80.39,293.02 0,103.55 -17.87,202.4 -53.6,296.55 -66.36,164.76 -165.9,316.57 -298.61,455.42 -132.74,138.85 -293.52,255.36 -482.36,349.51 -188.86,94.15 -400.72,164.76 -635.5,211.82 -234.79,47.06 -487.45,63.55 -758.01,49.43 -56.15,178.88 -63.8,318.9 -22.96,420.12 40.84,101.21 142.91,151.81 306.26,151.81zm99.55 -1341.56c-61.27,98.85 -114.86,193.01 -160.79,282.43 -45.95,89.43 -89.32,174.16 -130.15,254.19 122.48,-61.18 246.27,-165.93 371.33,-314.21 125.07,-148.28 269.26,-351.87 432.6,-610.76 122.51,-193.01 206.71,-344.81 252.66,-455.42 45.95,-110.61 71.47,-177.69 76.56,-201.23 -56.15,-47.06 -149.31,15.29 -279.46,187.11 -130.15,171.82 -317.74,457.79 -562.75,857.89z"/>
  <path id="32" class="fil7 str0" d="M68649.76 4325.81c280.71,-56.49 512.97,-80.03 696.74,-70.61 183.75,9.42 334.33,37.67 451.73,84.73 117.42,47.06 205.46,108.28 264.17,183.58 58.68,75.31 103.35,152.98 133.99,233.01 45.92,150.64 29.36,316.57 -49.79,497.79 -79.11,181.22 -177.35,368.33 -294.78,561.34 -51.04,80.03 -109.75,163.57 -176.1,250.66 -66.33,87.09 -126.32,168.29 -179.91,243.6 -53.6,75.31 -94.46,141.22 -122.51,197.7 -28.08,56.49 -26.8,96.49 3.81,120.03 40.86,37.67 86.79,49.43 137.83,35.3 51.04,-14.12 105.94,-44.73 164.62,-91.79 58.68,-47.06 118.67,-104.74 179.94,-172.99 61.24,-68.25 122.51,-140.05 183.75,-215.36 61.24,-75.31 118.67,-149.44 172.27,-222.42 53.6,-72.97 90.62,-125.93 111.03,-158.87l176.1 91.79c-56.15,75.31 -119.95,158.87 -191.42,250.66 -71.47,91.79 -149.31,185.94 -233.54,282.43 -84.2,96.49 -172.27,189.47 -264.14,278.9 -91.87,89.43 -183.75,167.1 -275.62,233.01 -91.9,65.91 -190.17,115.34 -294.8,148.28 -104.61,32.94 -210.55,52.96 -317.74,60.02 -107.19,7.06 -210.55,1.17 -310.09,-17.65 -99.55,-18.82 -187.58,-47.06 -264.14,-84.73 -265.42,-122.4 -398.16,-314.21 -398.16,-575.46 0,-261.25 107.19,-544.85 321.57,-850.83 158.23,-216.52 289.69,-407.16 394.32,-571.93 104.63,-164.76 151.86,-277.74 141.66,-338.92 -10.23,-37.67 -21.71,-69.44 -34.47,-95.32 -12.76,-25.88 -44.67,-41.2 -95.71,-45.9l-38.28 21.18c-25.52,70.61 -68.91,169.46 -130.15,296.55 -61.27,127.09 -130.18,262.42 -206.74,406 -76.56,143.58 -155.7,282.43 -237.34,416.59 -81.67,134.16 -150.58,241.24 -206.74,321.27l-176.1 -91.79c81.67,-136.52 155.7,-260.08 222.05,-370.69 66.33,-110.61 126.32,-216.52 179.91,-317.74 53.6,-101.21 105.94,-204.76 156.98,-310.68 51.04,-105.91 102.08,-222.42 153.11,-349.51 -40.84,-23.55 -67.63,-57.65 -80.39,-102.38 -12.73,-44.73 -19.13,-97.68 -19.13,-158.87l352.21 0zm1676.78 1475.71l-7.67 -7.06c35.72,-32.94 38.31,-30.61 7.67,7.06z"/>
  <path id="33" class="fil7 str0" d="M71628.15 6380.51c30.63,-9.42 63.83,-34.14 99.55,-74.14 35.72,-40 89.32,-114.14 160.79,-222.42l22.96 -35.3 926.44 -1694.6c245.02,14.12 495.12,15.29 750.37,3.53 255.22,-11.76 500.23,-29.41 735.02,-52.96l-1309.28 2400.68c-56.15,108.28 -117.39,214.19 -183.75,317.74 -66.36,103.55 -135.27,202.4 -206.74,296.55 137.83,-103.55 278.21,-216.52 421.12,-338.92 142.91,-122.4 280.74,-249.49 413.45,-381.28 132.74,-131.79 256.5,-265.95 371.36,-402.47 114.84,-136.52 213.1,-270.67 294.78,-402.47l183.75 91.79c-127.6,188.28 -285.85,384.81 -474.72,589.58 -188.84,204.76 -385.37,398.94 -589.55,582.52 -204.15,183.58 -403.25,344.81 -597.2,483.67 -193.98,138.85 -359.88,238.9 -497.68,300.09 -229.7,193.01 -481.11,321.27 -754.17,384.81 -273.09,63.55 -570.43,17.65 -892,-137.69 -117.42,-51.79 -207.99,-117.67 -271.81,-197.7 -63.83,-80.03 -104.63,-161.23 -122.51,-243.6 -17.87,-82.37 -14.04,-156.51 11.48,-222.42 25.55,-65.91 68.91,-110.61 130.18,-134.16 45.92,-14.12 96.96,-12.95 153.11,3.53 56.15,16.48 105.94,50.59 149.31,102.38 43.39,51.79 76.56,117.67 99.55,197.7 22.96,80.03 24.24,176.52 3.81,289.49 35.72,9.42 74.03,14.12 114.86,14.12 40.84,0 81.64,-10.59 122.51,-31.77 40.84,-21.18 85.48,-57.65 133.99,-109.44 48.51,-51.79 100.8,-127.09 156.95,-225.95l390.49 -748.45 199.07 -254.19 -30.61 0c-158.23,136.52 -310.09,234.17 -455.56,293.02 -145.5,58.85 -287.13,92.96 -424.96,102.38 -148.03,9.42 -278.21,-12.95 -390.49,-67.08 -112.28,-54.12 -197.81,-129.46 -256.5,-225.95 -58.68,-96.49 -86.79,-209.46 -84.23,-338.92 2.59,-129.46 44.67,-269.48 126.34,-420.12l765.65 -1433.35c117.42,9.42 245.02,11.76 382.84,7.06 137.8,-4.7 275.62,-11.76 413.45,-21.18 137.83,-9.42 269.26,-24.71 394.32,-45.9 125.07,-21.18 238.62,-45.9 340.7,-74.14l-849.86 1588.69c-91.9,160.04 -149.31,283.6 -172.3,370.69 -22.96,87.09 8.92,125.93 95.71,116.5z"/>
 </g>
</svg>
