<?xml version="1.0" encoding="UTF-8"?>
<!DOCTYPE svg PUBLIC "-//W3C//DTD SVG 1.0//EN" "http://www.w3.org/TR/2001/REC-SVG-20010904/DTD/svg10.dtd">
<!-- Creator: CorelDRAW 2020 (64 Bit) -->
<svg xmlns="http://www.w3.org/2000/svg" xml:space="preserve" width="144.484mm" height="84.3387mm" version="1.0" style="shape-rendering:geometricPrecision; text-rendering:geometricPrecision; image-rendering:optimizeQuality; fill-rule:evenodd; clip-rule:evenodd"
viewBox="0 0 13197.57 7703.74"
 xmlns:xlink="http://www.w3.org/1999/xlink"
 xmlns:xodm="http://www.corel.com/coreldraw/odm/2003">
 <defs>
  <style type="text/css">
   <![CDATA[
    .fil0 {fill:black}
    .fil4 {fill:#98490D}
    .fil3 {fill:#C05C08}
    .fil1 {fill:#DD771A}
    .fil2 {fill:#FECD93}
   ]]>
  </style>
 </defs>
 <g id="Camada_x0020_1">
  <metadata id="CorelCorpID_0Corel-Layer"/>
  <g id="_2105680632080">
   <path class="fil0" d="M10389.83 7476.81c-126.41,-182.65 -54.69,-185.16 -360.74,-183.48l-3938.14 0.72c15.93,-77.53 192.33,-274.33 245.64,-436.75 273.27,-9.52 556.25,-2.73 830.59,-2.73 197.29,0 628.03,72.69 707.83,-105.94 147.31,-329.74 -325.56,-280.46 -527.37,-280.4 -279.34,0.07 -558.76,0.51 -838.11,-0.14 -12.66,-175.63 369.53,-1354.83 -250.18,-2404.95 -61.74,-104.62 -140.07,-187.93 -173.73,-268.4 679.47,-31.04 1425.96,-3.24 2112.8,-3.24l3196.87 0c398.54,0 666.19,-35.72 907.93,183.48 128.92,116.9 304.25,448.93 374.03,682.82 94.13,315.49 133.72,606.72 135.78,957.32l-2861.49 0.79c-243.45,0 -780.89,-93.09 -806.44,170.87 -30.28,312.79 513.1,215.51 754.89,215.51l2870.99 5.34c-19.99,445.17 -299.31,970.2 -553.65,1166.1 -250.47,192.93 -785.97,102.79 -1184.64,119.62 -174.71,7.38 -220.58,44.9 -249.19,193.09 -8.87,292.74 507.97,204.11 947.12,206.42 712.55,3.74 1071.56,-440.16 1286.13,-1034.18 407.87,-1129.24 150.2,-3052.56 -1024.22,-3249.94 -324.25,-54.5 -770.19,-21.51 -1138.64,-21.51 11.29,-135.7 189.06,-390.73 205.78,-1031.78 6.44,-246.81 31.47,-218.16 -3.2,-562.98 -21.06,-209.49 -11.3,-381.51 -254.14,-391.66 -267.64,90.54 -121.68,294.88 -120.3,832.09l-2896.11 0c-231.65,0 -754.24,-92.83 -773.55,176.05 -12.95,180.33 110.29,208.94 282.49,211.3l3347.07 -0.53c-9.75,169.69 -96.04,501.34 -172.09,626.25 -70.71,194.79 -51.29,162.62 -285.44,159.57 -1482.1,-19.34 -3071.86,-0.04 -4564.11,-0.57 -281.98,-0.1 -488.56,-19.58 -726.49,106.49 -158.17,83.81 -358.43,261.6 -425.04,398.66l-168.45 -0.2 -346.99 -7.87c84.47,-156.84 215.99,-292.94 301.94,-512.77 78.29,-200.22 113.68,-413.4 188.81,-610.46 271.75,0 543.52,0 815.27,0 252.52,0.01 631.44,70.8 635.16,-191.1 3.75,-263.52 -359.18,-195.29 -609.39,-195.28 -267.56,0.01 -535.13,0 -802.69,0 9.37,-435.15 -9.87,-756.32 -118.02,-1152.56 -132.95,-487.06 -332.31,-658.95 -408.66,-830.96 305.47,-1.85 611.36,-0.37 916.88,-0.37 458.04,0 689.55,72.53 740.69,-192.4 8.63,-284.68 -433.2,-206.24 -714.91,-206.24 -329.9,0 -1672.26,-22.08 -1885.5,22.31 -485.27,100.99 -762.09,522.1 -939.67,942.35 -208.76,494.05 -253.92,1118.79 -180.62,1654.42 67.05,490.05 144.39,538.23 195.65,758.27 -345.2,0 -743.49,-20.68 -1011.96,45.07 -258.91,63.42 -466.21,264.25 -605.24,451.79 -294.75,397.6 -445.11,932.83 -471.08,1475.81l0 342.95c43,907.57 425.2,1759.9 1053.18,1942.12 265.41,77.01 690.91,47.72 1035.1,47.72l7967.48 1.09c215.5,1.46 298.76,-38.25 334.07,-216.98z"/>
   <path class="fil1" d="M10389.83 7476.81l393.68 9.65c28.61,-148.19 74.48,-185.71 249.19,-193.09 398.67,-16.83 934.16,73.3 1184.64,-119.62 254.34,-195.9 533.65,-720.93 553.65,-1166.1l-2870.99 -5.34c-241.78,0 -785.17,97.28 -754.89,-215.51 25.55,-263.95 562.99,-170.87 806.44,-170.87l2861.49 -0.79c-2.06,-350.6 -41.65,-641.83 -135.78,-957.32 -69.79,-233.89 -245.11,-565.92 -374.03,-682.82 -241.74,-219.2 -509.39,-183.48 -907.93,-183.48l-3196.87 0c-686.83,0 -1433.33,-27.8 -2112.8,3.24 33.65,80.47 111.99,163.78 173.73,268.4 619.71,1050.12 237.52,2229.32 250.18,2404.95 279.34,0.65 558.76,0.21 838.11,0.14 201.8,-0.05 674.68,-49.33 527.37,280.4 -79.81,178.63 -510.54,105.94 -707.83,105.94 -274.34,0 -557.32,-6.79 -830.59,2.73 -53.31,162.42 -229.71,359.22 -245.64,436.75l3938.14 -0.72c306.05,-1.68 234.33,0.83 360.74,183.48z"/>
   <path class="fil1" d="M4300.33 3909.93c168.39,-309.72 539.36,-645.86 1061.1,-645.22 603.9,0.73 4898.77,35.02 5108.41,-18.73 76.05,-124.9 162.34,-456.56 172.09,-626.25l-3347.07 0.53c-172.2,-2.37 -295.44,-30.97 -282.49,-211.3 19.31,-268.89 541.9,-176.05 773.55,-176.05l2896.11 0c-1.38,-537.21 -147.35,-741.55 120.3,-832.09 -56.8,-115.02 -100.71,-294.64 -154.69,-422.03 -265.36,41.72 -273.87,-141.33 -402.18,-283.06 -81.61,-90.14 -217.89,-238.92 -394.28,-275.15 -183.22,-37.63 -2846.88,-12.93 -3354.31,-11.99 -447.83,0.83 -355.5,11.32 -489.84,-182.79l-393.68 -9.65c-51.14,264.93 -282.65,192.4 -740.69,192.4 -305.52,0 -611.41,-1.48 -916.88,0.37 76.35,172.02 275.71,343.91 408.66,830.96 108.16,396.24 127.4,717.41 118.02,1152.56 267.56,0 535.13,0.01 802.69,0 250.21,-0.01 613.13,-68.23 609.39,195.28 -3.72,261.9 -382.64,191.11 -635.16,191.1 -271.75,0 -543.52,0 -815.27,0 -75.14,197.06 -110.52,410.24 -188.81,610.46 -85.95,219.84 -217.47,355.94 -301.94,512.77l346.99 7.87z"/>
   <path class="fil2" d="M1181.67 3814.39c-761.43,220.86 -1032.77,1923.84 -535.74,2922.44 624.16,1254.07 1663.35,211.93 1584.32,-1338.73 -30.7,-602.45 -354.52,-1785.02 -1048.57,-1583.71z"/>
   <path class="fil2" d="M3021.53 441.67c-560.2,191.79 -801.35,1148.78 -759.74,1914.99 34.06,627.04 407.71,1773.3 1090.75,1521.15 729.88,-269.45 982.77,-1967.67 473.41,-2950.54 -124.34,-239.92 -410.81,-620.36 -804.43,-485.6z"/>
   <path class="fil2" d="M5177.64 3814.27c-550.72,158.31 -825.69,1120.48 -788.64,1860.03 29.89,596.67 335.86,1770.52 1044.62,1601.41 561.13,-133.88 829.73,-1177.12 792.39,-1877.6 -34.21,-641.55 -369.79,-1778.89 -1048.37,-1583.83z"/>
   <path class="fil3" d="M2092.05 7254.55l2260.32 0c-324.96,-292.51 -474.81,-1183.39 -495.02,-1658.71 -275.44,-94.88 -682.54,68.1 -924.92,-42.26 -243.86,-45.32 -298.49,-382.21 108.33,-383.49 276.98,-0.89 561.17,8.32 837.19,-1.13 28.3,-296.67 91.74,-468.63 148.86,-730.38 -341.44,0 -901.15,38.47 -1196.95,-66.16 -254.08,-89.88 -587.45,-384.75 -660.58,-580.62 -140.79,4.78 -41.62,-3.99 -79.5,35.56 246.49,246.1 417.32,714.79 489.92,1159.83 99.77,611.66 9.65,916.52 -74.23,1476 637.07,46.98 1514.93,-148.43 1381.82,266.48 -64.64,201.48 -492.37,125.1 -690.42,125.1 -282.59,0 -574.84,-7.26 -856.23,2.8 -39.62,119.97 -169.61,340.8 -248.6,396.98z"/>
   <path class="fil0" d="M6007.02 225.79c134.35,194.1 42.02,183.62 489.84,182.79 507.44,-0.93 3171.09,-25.64 3354.31,11.99 176.39,36.24 312.68,185.02 394.28,275.15 128.31,141.73 136.82,324.78 402.18,283.06 63.8,-62.54 137.2,-71.74 93.92,-234.66 -48.61,-182.99 -351.48,-499.73 -532.8,-604.71 -326.85,-189.23 -917.39,-129.52 -1391.58,-129.52l-2242.96 0c-308.99,-0.04 -513.55,-55.58 -567.19,215.89z"/>
   <path class="fil0" d="M3171.09 3211.89c-327.44,-146.6 -382.56,-1268.4 -188.23,-1817.84 135.8,-383.96 293.05,-250.66 365.58,-409.75 100.05,-219.44 -144.52,-323.98 -355.05,-224.99 -669.91,314.97 -674.75,2387.81 -48.58,2776.34 756.19,469.21 1094.08,-1359.06 858.21,-1528.99 -83.41,-60.09 -214.66,-35.74 -271.5,39.21 -108.83,143.51 -10.07,1005.94 -360.44,1166.01z"/>
   <path class="fil0" d="M6868.16 4722.89c-148.29,45.54 -216.33,195.29 -92.34,318.14 94.37,93.49 308.26,55.81 442.92,55.68 459.77,-0.43 2898.91,21.37 3006.32,-17.73 134.14,-48.85 153.83,-235.48 55.09,-319.56 -107.32,-91.38 -1258.01,-49.1 -1437.19,-49.1 -289.39,0 -1827.67,-32.61 -1974.8,12.57z"/>
   <path class="fil0" d="M5310.93 6595.89c-380.75,-187.08 -227.33,-1067.63 -385.28,-1200.21 -126.26,-106 -289.5,-18.27 -311.43,132.26 -35.1,240.98 61.17,703.91 140.32,916.52 431.54,1159.23 1344.21,279.37 1250.47,-891.72 -10.89,-136.06 -130.44,-254.05 -276.1,-177.79 -217.86,114.08 -24.49,973.46 -417.98,1220.94z"/>
   <path class="fil0" d="M5646.09 1713.65c730.47,0 1512.49,0 2294.53,0 361.25,0 404.8,-386.34 -25.78,-386.34l-2268.75 0c-351.13,0 -363.87,386.34 0,386.34z"/>
   <path class="fil0" d="M7914.84 3205.02l1804.68 0c383.8,0 383.38,-386.38 0,-386.38l-1804.68 0c-366.26,0 -362.06,386.38 0,386.38z"/>
   <path class="fil3" d="M4300.33 3909.93l168.45 0.2c66.61,-137.06 266.87,-314.85 425.04,-398.66 237.93,-126.07 444.5,-106.59 726.49,-106.49 1492.24,0.53 3082,-18.77 4564.11,0.57 234.15,3.05 214.73,35.22 285.44,-159.57 -209.64,53.75 -4504.5,19.46 -5108.41,18.73 -521.74,-0.64 -892.71,335.5 -1061.1,645.22z"/>
   <path class="fil0" d="M1133.6 6700.78c-59.41,557.05 847.58,380.07 875.65,-1071.54 3.72,-192.11 -113.17,-360.85 -292.63,-243.56 -129.31,84.53 -92.59,342.32 -117.77,528.64 -24.4,180.59 -62.31,334.32 -131.46,486.5 -98.96,217.79 -166.97,167.91 -333.79,299.96z"/>
   <path class="fil0" d="M1180.18 4123.17c-510.74,181.1 -660.24,1411.58 -508.51,1557.96 53.91,52.01 165.78,72.18 244.11,15.07 118.4,-86.32 85.94,-343.4 107.67,-511.59 105.04,-813.22 367.55,-652.63 449.52,-789.49 111.96,-186.96 -72.91,-349.92 -292.79,-271.96z"/>
   <path class="fil4" d="M3877.95 5168.95c145.83,3.85 124.37,0.46 149.22,-76.4l66.99 -368.61c35.29,-139.43 108.98,-308.86 128.66,-426.41 -304.31,0 -987.08,33.63 -1242,-23.67 -521.32,-117.17 -482.53,-483.3 -811.54,-482.08 73.13,195.87 406.5,490.74 660.58,580.62 295.8,104.63 855.51,66.16 1196.95,66.16 -57.13,261.74 -120.56,433.71 -148.86,730.38z"/>
   <path class="fil4" d="M2092.05 7254.55c30.58,72.4 -3.86,36.9 123.07,46.06l2312.25 -6.6c-31.24,-82.75 -149.04,-230.54 -208.54,-336.64 -75.48,-134.58 -118.84,-250.86 -167.69,-399.37 -120.26,-365.64 -117.66,-609.19 -159.47,-1000.39l-1059.25 -4.04c242.38,110.35 649.48,-52.62 924.92,42.26 20.21,475.32 170.06,1366.21 495.02,1658.71l-2260.32 0z"/>
   <path class="fil0" d="M9939.27 6400.17c-245.1,67.03 -207.1,353.91 62.04,374.23 110.57,8.35 605.04,11.96 687.57,-19.68 155.37,-59.54 168.39,-343.07 -96.94,-365.21 -101.12,-8.44 -579.25,-9.43 -652.67,10.65z"/>
   <path class="fil0" d="M5114.41 4702.08c0,222.45 -39.21,465.98 174.55,483.4 252.66,20.59 212.05,-251.16 212.05,-483.4 0,-373.1 -386.6,-356.34 -386.6,0z"/>
   <path class="fil0" d="M8353.12 1074.02l154.68 0c365.13,0 363.91,-386.39 0,-386.39 -185.79,0 -416.61,-30.89 -431.3,176.83 -12.09,170.98 117.71,209.56 276.62,209.56z"/>
   <path class="fil0" d="M11472.65 4776.86l154.79 0c359.99,0 366.01,-386.34 -0.1,-386.34l-180.88 0c-337.18,0 -363.24,386.34 26.19,386.34z"/>
  </g>
 </g>
</svg>
